<svg width="265" height="315" viewBox="0 0 265 315" fill="none" xmlns="http://www.w3.org/2000/svg">
<g clip-path="url(#clip0_305_1856)">
<g filter="url(#filter0_d_305_1856)">
<rect x="18.8809" y="61.0999" width="228.28" height="241.496" rx="15.5029" fill="#FFC5E5"/>
</g>
<path d="M46.6498 252.622L41.3249 239.108H44.1508L48.2646 250.046H47.1689L51.3212 239.108H54.1086L48.726 252.622H46.6498ZM55.6095 252.622V243.337H58.147V252.622H55.6095ZM56.8783 241.838C56.4682 241.838 56.1286 241.703 55.8594 241.434C55.5903 241.152 55.4557 240.806 55.4557 240.396C55.4557 239.999 55.5903 239.659 55.8594 239.377C56.1286 239.095 56.4682 238.954 56.8783 238.954C57.3012 238.954 57.6408 239.095 57.8971 239.377C58.1663 239.659 58.3008 239.999 58.3008 240.396C58.3008 240.806 58.1663 241.152 57.8971 241.434C57.6408 241.703 57.3012 241.838 56.8783 241.838ZM63.569 252.834C63.0435 252.834 62.5245 252.763 62.0119 252.622C61.5121 252.481 61.0507 252.289 60.6278 252.045C60.2049 251.789 59.8396 251.481 59.532 251.123L61.0315 249.604C61.3519 249.963 61.7235 250.232 62.1464 250.411C62.5694 250.591 63.0371 250.68 63.5498 250.68C63.9599 250.68 64.2674 250.623 64.4725 250.507C64.6904 250.392 64.7993 250.219 64.7993 249.988C64.7993 249.732 64.6839 249.533 64.4533 249.393C64.2354 249.252 63.947 249.136 63.5882 249.046C63.2294 248.944 62.8513 248.835 62.454 248.72C62.0695 248.592 61.6979 248.431 61.339 248.239C60.9802 248.034 60.6854 247.759 60.4548 247.412C60.2369 247.054 60.128 246.592 60.128 246.028C60.128 245.439 60.2689 244.926 60.5509 244.49C60.8456 244.055 61.2622 243.715 61.8004 243.472C62.3387 243.228 62.9731 243.106 63.7035 243.106C64.4725 243.106 65.1645 243.241 65.7797 243.51C66.4077 243.779 66.9267 244.183 67.3368 244.721L65.8181 246.24C65.5362 245.894 65.2158 245.644 64.857 245.49C64.5109 245.336 64.1329 245.259 63.7228 245.259C63.3511 245.259 63.0628 245.317 62.8577 245.432C62.6655 245.548 62.5694 245.708 62.5694 245.913C62.5694 246.144 62.6783 246.323 62.8962 246.451C63.1268 246.579 63.4216 246.695 63.7804 246.797C64.1393 246.887 64.5109 246.996 64.8954 247.124C65.2927 247.239 65.6644 247.406 66.0104 247.624C66.3692 247.842 66.6576 248.13 66.8754 248.489C67.1061 248.848 67.2215 249.309 67.2215 249.873C67.2215 250.783 66.8947 251.507 66.2411 252.045C65.5875 252.571 64.6968 252.834 63.569 252.834ZM72.8028 252.814C71.9569 252.814 71.1944 252.603 70.5152 252.18C69.8359 251.757 69.3041 251.18 68.9196 250.45C68.5351 249.719 68.3429 248.899 68.3429 247.989C68.3429 247.066 68.5351 246.24 68.9196 245.509C69.3041 244.779 69.8359 244.202 70.5152 243.779C71.1944 243.356 71.9569 243.145 72.8028 243.145C73.4692 243.145 74.0651 243.279 74.5905 243.549C75.116 243.818 75.5325 244.196 75.8401 244.683C76.1605 245.157 76.3335 245.695 76.3591 246.298V249.642C76.3335 250.258 76.1605 250.802 75.8401 251.276C75.5325 251.751 75.116 252.129 74.5905 252.411C74.0651 252.68 73.4692 252.814 72.8028 252.814ZM73.2641 250.488C73.969 250.488 74.5393 250.258 74.975 249.796C75.4108 249.322 75.6286 248.713 75.6286 247.97C75.6286 247.483 75.5261 247.054 75.321 246.682C75.1288 246.298 74.8533 246.003 74.4944 245.798C74.1484 245.58 73.7383 245.471 73.2641 245.471C72.8028 245.471 72.3927 245.58 72.0338 245.798C71.6878 246.003 71.4123 246.298 71.2072 246.682C71.015 247.054 70.9188 247.483 70.9188 247.97C70.9188 248.47 71.015 248.912 71.2072 249.296C71.4123 249.668 71.6878 249.963 72.0338 250.181C72.3927 250.386 72.8028 250.488 73.2641 250.488ZM75.4941 252.622V250.123L75.8978 247.855L75.4941 245.625V243.337H77.9931V252.622H75.4941ZM82.7006 252.622L88.1409 239.108H90.2747L95.6958 252.622H92.9084L88.7176 241.53H89.6788L85.4304 252.622H82.7006ZM85.5842 250.104V247.912H92.8507V250.104H85.5842ZM102.325 252.814C101.658 252.814 101.056 252.68 100.518 252.411C99.9796 252.129 99.5503 251.751 99.2299 251.276C98.9095 250.802 98.7365 250.258 98.7109 249.642V246.355C98.7365 245.74 98.9095 245.195 99.2299 244.721C99.5631 244.234 99.9925 243.85 100.518 243.568C101.056 243.286 101.658 243.145 102.325 243.145C103.184 243.145 103.953 243.356 104.632 243.779C105.311 244.202 105.843 244.779 106.227 245.509C106.625 246.24 106.823 247.066 106.823 247.989C106.823 248.899 106.625 249.719 106.227 250.45C105.843 251.18 105.311 251.757 104.632 252.18C103.953 252.603 103.184 252.814 102.325 252.814ZM101.883 250.488C102.344 250.488 102.754 250.386 103.113 250.181C103.472 249.963 103.747 249.668 103.94 249.296C104.145 248.912 104.247 248.47 104.247 247.97C104.247 247.483 104.145 247.054 103.94 246.682C103.747 246.298 103.472 246.003 103.113 245.798C102.754 245.58 102.344 245.471 101.883 245.471C101.434 245.471 101.031 245.58 100.672 245.798C100.313 246.003 100.031 246.298 99.8258 246.682C99.6336 247.054 99.5375 247.483 99.5375 247.97C99.5375 248.47 99.6336 248.912 99.8258 249.296C100.031 249.668 100.306 249.963 100.652 250.181C101.011 250.386 101.421 250.488 101.883 250.488ZM97.173 256.505V243.337H99.6913V245.778L99.2684 248.028L99.6721 250.277V256.505H97.173ZM113.626 252.814C112.96 252.814 112.358 252.68 111.819 252.411C111.281 252.129 110.852 251.751 110.531 251.276C110.211 250.802 110.038 250.258 110.012 249.642V246.355C110.038 245.74 110.211 245.195 110.531 244.721C110.864 244.234 111.294 243.85 111.819 243.568C112.358 243.286 112.96 243.145 113.626 243.145C114.485 243.145 115.254 243.356 115.933 243.779C116.612 244.202 117.144 244.779 117.529 245.509C117.926 246.24 118.125 247.066 118.125 247.989C118.125 248.899 117.926 249.719 117.529 250.45C117.144 251.18 116.612 251.757 115.933 252.18C115.254 252.603 114.485 252.814 113.626 252.814ZM113.184 250.488C113.645 250.488 114.056 250.386 114.414 250.181C114.773 249.963 115.049 249.668 115.241 249.296C115.446 248.912 115.549 248.47 115.549 247.97C115.549 247.483 115.446 247.054 115.241 246.682C115.049 246.298 114.773 246.003 114.414 245.798C114.056 245.58 113.645 245.471 113.184 245.471C112.736 245.471 112.332 245.58 111.973 245.798C111.614 246.003 111.332 246.298 111.127 246.682C110.935 247.054 110.839 247.483 110.839 247.97C110.839 248.47 110.935 248.912 111.127 249.296C111.332 249.668 111.608 249.963 111.954 250.181C112.313 250.386 112.723 250.488 113.184 250.488ZM108.474 256.505V243.337H110.993V245.778L110.57 248.028L110.973 250.277V256.505H108.474ZM119.776 252.622V238.723H122.294V252.622H119.776ZM124.525 252.622V243.337H127.063V252.622H124.525ZM125.794 241.838C125.384 241.838 125.044 241.703 124.775 241.434C124.506 241.152 124.372 240.806 124.372 240.396C124.372 239.999 124.506 239.659 124.775 239.377C125.044 239.095 125.384 238.954 125.794 238.954C126.217 238.954 126.557 239.095 126.813 239.377C127.082 239.659 127.217 239.999 127.217 240.396C127.217 240.806 127.082 241.152 126.813 241.434C126.557 241.703 126.217 241.838 125.794 241.838ZM133.677 252.814C132.728 252.814 131.876 252.603 131.12 252.18C130.364 251.757 129.768 251.18 129.332 250.45C128.896 249.719 128.678 248.899 128.678 247.989C128.678 247.066 128.896 246.24 129.332 245.509C129.768 244.779 130.364 244.202 131.12 243.779C131.889 243.343 132.741 243.126 133.677 243.126C134.407 243.126 135.08 243.26 135.695 243.529C136.31 243.798 136.842 244.183 137.291 244.683L135.676 246.317C135.432 246.048 135.138 245.843 134.792 245.702C134.458 245.561 134.087 245.49 133.677 245.49C133.215 245.49 132.799 245.599 132.427 245.817C132.068 246.022 131.78 246.31 131.562 246.682C131.357 247.041 131.254 247.47 131.254 247.97C131.254 248.457 131.357 248.893 131.562 249.277C131.78 249.649 132.068 249.944 132.427 250.161C132.799 250.367 133.215 250.469 133.677 250.469C134.1 250.469 134.478 250.399 134.811 250.258C135.157 250.104 135.452 249.886 135.695 249.604L137.329 251.238C136.855 251.751 136.31 252.141 135.695 252.411C135.08 252.68 134.407 252.814 133.677 252.814ZM142.432 252.814C141.586 252.814 140.824 252.603 140.144 252.18C139.465 251.757 138.933 251.18 138.549 250.45C138.164 249.719 137.972 248.899 137.972 247.989C137.972 247.066 138.164 246.24 138.549 245.509C138.933 244.779 139.465 244.202 140.144 243.779C140.824 243.356 141.586 243.145 142.432 243.145C143.098 243.145 143.694 243.279 144.22 243.549C144.745 243.818 145.162 244.196 145.469 244.683C145.79 245.157 145.963 245.695 145.988 246.298V249.642C145.963 250.258 145.79 250.802 145.469 251.276C145.162 251.751 144.745 252.129 144.22 252.411C143.694 252.68 143.098 252.814 142.432 252.814ZM142.893 250.488C143.598 250.488 144.168 250.258 144.604 249.796C145.04 249.322 145.258 248.713 145.258 247.97C145.258 247.483 145.155 247.054 144.95 246.682C144.758 246.298 144.482 246.003 144.124 245.798C143.778 245.58 143.367 245.471 142.893 245.471C142.432 245.471 142.022 245.58 141.663 245.798C141.317 246.003 141.041 246.298 140.836 246.682C140.644 247.054 140.548 247.483 140.548 247.97C140.548 248.47 140.644 248.912 140.836 249.296C141.041 249.668 141.317 249.963 141.663 250.181C142.022 250.386 142.432 250.488 142.893 250.488ZM145.123 252.622V250.123L145.527 247.855L145.123 245.625V243.337H147.622V252.622H145.123ZM151.215 252.622V239.473H153.733V252.622H151.215ZM149.043 245.548V243.337H155.906V245.548H149.043ZM157.322 252.622V243.337H159.859V252.622H157.322ZM158.591 241.838C158.18 241.838 157.841 241.703 157.572 241.434C157.303 241.152 157.168 240.806 157.168 240.396C157.168 239.999 157.303 239.659 157.572 239.377C157.841 239.095 158.18 238.954 158.591 238.954C159.013 238.954 159.353 239.095 159.609 239.377C159.878 239.659 160.013 239.999 160.013 240.396C160.013 240.806 159.878 241.152 159.609 241.434C159.353 241.703 159.013 241.838 158.591 241.838ZM166.454 252.814C165.518 252.814 164.672 252.603 163.916 252.18C163.173 251.744 162.577 251.161 162.129 250.431C161.693 249.687 161.475 248.861 161.475 247.951C161.475 247.041 161.693 246.227 162.129 245.509C162.564 244.779 163.16 244.202 163.916 243.779C164.672 243.343 165.512 243.126 166.435 243.126C167.383 243.126 168.229 243.343 168.972 243.779C169.728 244.202 170.324 244.779 170.76 245.509C171.196 246.227 171.414 247.041 171.414 247.951C171.414 248.861 171.196 249.687 170.76 250.431C170.324 251.161 169.728 251.744 168.972 252.18C168.229 252.603 167.389 252.814 166.454 252.814ZM166.435 250.469C166.909 250.469 167.325 250.367 167.684 250.161C168.056 249.944 168.338 249.649 168.53 249.277C168.735 248.893 168.838 248.457 168.838 247.97C168.838 247.483 168.735 247.054 168.53 246.682C168.325 246.31 168.043 246.022 167.684 245.817C167.325 245.599 166.909 245.49 166.435 245.49C165.973 245.49 165.563 245.599 165.204 245.817C164.845 246.022 164.564 246.31 164.358 246.682C164.153 247.054 164.051 247.483 164.051 247.97C164.051 248.457 164.153 248.893 164.358 249.277C164.564 249.649 164.845 249.944 165.204 250.161C165.563 250.367 165.973 250.469 166.435 250.469ZM179.282 252.622V247.297C179.282 246.746 179.109 246.298 178.763 245.951C178.417 245.605 177.969 245.432 177.418 245.432C177.059 245.432 176.739 245.509 176.457 245.663C176.175 245.817 175.95 246.035 175.784 246.317C175.63 246.599 175.553 246.925 175.553 247.297L174.573 246.797C174.573 246.067 174.726 245.432 175.034 244.894C175.354 244.343 175.79 243.914 176.341 243.606C176.905 243.299 177.54 243.145 178.244 243.145C178.924 243.145 179.532 243.318 180.071 243.664C180.609 243.997 181.032 244.439 181.339 244.99C181.647 245.529 181.801 246.112 181.801 246.74V252.622H179.282ZM173.035 252.622V243.337H175.553V252.622H173.035Z" fill="#110053"/>
<path opacity="0.6" d="M42.1227 273.386V263.38H43.4779V267.965L48.2069 263.38H49.9659L45.0062 268.153L50.1101 273.386H48.3079L43.4779 268.383V273.386H42.1227ZM51.4944 273.386V266.538H52.792V267.432C53.2822 266.783 54.0463 266.394 54.9546 266.394C56.5262 266.394 57.6363 267.706 57.6363 269.133V273.386H56.3387V269.393C56.3387 268.34 55.6179 267.605 54.5798 267.605C53.5417 267.605 52.792 268.354 52.792 269.393V273.386H51.4944ZM62.5218 273.53C60.5177 273.53 58.9462 271.944 58.9462 269.94C58.9462 267.951 60.5033 266.394 62.5218 266.394C64.5114 266.394 66.0974 267.951 66.0974 269.94C66.0974 271.959 64.5258 273.53 62.5218 273.53ZM62.5218 272.276C63.8194 272.276 64.7565 271.296 64.7565 269.94C64.7565 268.6 63.805 267.648 62.5218 267.648C61.2242 267.648 60.287 268.614 60.287 269.94C60.287 271.296 61.2242 272.276 62.5218 272.276ZM69.3231 273.386L66.6126 266.538H67.9678L69.7124 271.281L71.4425 266.538H72.1922L73.9223 271.281L75.6669 266.538H77.0221L74.326 273.386H73.5619L71.8174 268.845L70.0728 273.386H69.3231ZM81.1745 273.386V266.538H82.4721V267.345C82.9479 266.74 83.6832 266.394 84.5339 266.394C85.5143 266.394 86.3361 266.841 86.783 267.619C87.2588 266.855 88.1095 266.394 89.1043 266.394C90.5605 266.394 91.7283 267.388 91.7283 268.989V273.386H90.4307V269.248C90.4307 268.225 89.7242 267.605 88.7871 267.605C87.922 267.605 87.23 268.124 87.1146 268.974V273.386H85.817V269.248C85.817 268.225 85.1106 267.605 84.1734 267.605C83.2219 267.605 82.4866 268.225 82.4866 269.234H82.4721V273.386H81.1745ZM96.6371 273.53C94.633 273.53 93.0615 271.944 93.0615 269.94C93.0615 267.951 94.6186 266.394 96.6371 266.394C98.6267 266.394 100.213 267.951 100.213 269.94C100.213 271.959 98.6411 273.53 96.6371 273.53ZM96.6371 272.276C97.9347 272.276 98.8718 271.296 98.8718 269.94C98.8718 268.6 97.9202 267.648 96.6371 267.648C95.3395 267.648 94.4023 268.614 94.4023 269.94C94.4023 271.296 95.3395 272.276 96.6371 272.276ZM101.675 273.386V266.538H102.972V267.345C103.362 266.74 103.996 266.394 104.832 266.394C105.524 266.394 106.072 266.624 106.548 267.172L105.697 268.052C105.394 267.749 105.063 267.619 104.616 267.619C103.65 267.619 102.972 268.239 102.972 269.479V273.386H101.675ZM110.408 273.53C108.346 273.53 106.789 272.002 106.789 269.955C106.789 267.951 108.332 266.394 110.322 266.394C112.196 266.394 113.551 267.807 113.551 269.753C113.551 269.955 113.537 270.171 113.479 270.445H108.116C108.318 271.584 109.183 272.305 110.408 272.305C111.172 272.305 111.85 272.045 112.297 271.498L113.133 272.348C112.47 273.112 111.489 273.53 110.408 273.53ZM110.293 267.59C109.139 267.59 108.318 268.282 108.116 269.364H112.282C112.138 268.254 111.417 267.59 110.293 267.59ZM118.023 266.653V265.341L124.15 268.081V269.018L118.023 271.757V270.459L122.507 268.556L118.023 266.653Z" fill="#110053"/>
<g filter="url(#filter1_d_305_1856)">
<path d="M124.397 217.072C124.021 217.289 123.54 217.16 123.323 216.784L40.906 74.0719C40.6892 73.6965 40.8183 73.215 41.1937 72.9983L138.606 16.7408C140.862 15.438 143.749 16.208 145.054 18.4686L223.539 154.37C224.842 156.627 224.068 159.516 221.811 160.819L124.399 217.076L124.397 217.072Z" fill="url(#paint0_linear_305_1856)"/>
<path style="mix-blend-mode:overlay" d="M124.397 217.072C124.021 217.289 123.54 217.16 123.323 216.784L40.906 74.0719C40.6892 73.6965 40.8183 73.215 41.1937 72.9983L138.606 16.7408C140.862 15.438 143.749 16.208 145.054 18.4686L223.539 154.37C224.842 156.627 224.068 159.516 221.811 160.819L124.399 217.076L124.397 217.072Z" fill="url(#paint1_radial_305_1856)"/>
<g style="mix-blend-mode:multiply">
<path d="M82.6887 91.3484C82.834 91.6 82.947 91.7768 83.0296 91.8721C83.1121 91.9674 83.1886 92.0333 83.2697 92.069C83.3508 92.1046 83.4437 92.1225 83.55 92.1162C83.6563 92.1098 83.8056 92.0731 83.9979 92.006L84.217 92.3856L81.1191 94.1742L80.8999 93.7947C81.0188 93.6766 81.1105 93.5686 81.1668 93.4756C81.2231 93.3826 81.2492 93.285 81.2452 93.1828C81.2412 93.0806 81.2088 92.9673 81.1497 92.8364C81.093 92.7096 81.009 92.5546 80.9019 92.369L78.0367 87.4065C77.9319 87.2249 77.8421 87.0788 77.7583 86.9622C77.6786 86.8432 77.5966 86.7585 77.5101 86.7039C77.4236 86.6494 77.326 86.6232 77.2173 86.6255C77.1063 86.6236 76.9669 86.6491 76.8011 86.6953L76.582 86.3158L79.9275 84.3843C80.8969 83.8246 81.7271 83.5763 82.4098 83.6441C83.0925 83.712 83.6455 84.1077 84.0623 84.8296C84.3576 85.3412 84.5011 85.8469 84.4933 86.3574C84.4831 86.8637 84.3175 87.3389 84.0004 87.7805C83.6833 88.2221 83.2001 88.6331 82.5565 89.0046C82.1853 89.2189 81.8753 89.3869 81.6265 89.5086L82.6911 91.3525L82.6887 91.3484ZM81.2478 88.8527L81.7428 88.5669C82.1264 88.3454 82.4007 88.1155 82.5633 87.8731C82.7259 87.6308 82.795 87.3599 82.7665 87.0628C82.7397 86.7592 82.61 86.4106 82.3766 86.0064C82.1456 85.6062 81.9086 85.3196 81.6614 85.1487C81.4143 84.9779 81.1599 84.8993 80.8882 84.9241C80.6207 84.9466 80.3198 85.0543 79.9898 85.2448C79.7217 85.3996 79.5154 85.5187 79.3741 85.6168L81.246 88.8592L81.2478 88.8527ZM90.7009 85.3915L88.2423 86.811L88.3693 87.4692C88.4038 87.6527 88.4442 87.8275 88.4945 87.9909C88.5449 88.1543 88.6124 88.3189 88.7053 88.4797C88.922 88.8551 89.2367 88.9429 89.6535 88.7408L89.8726 89.1203L87.414 90.5398L87.1949 90.1603C87.3256 90.0628 87.4249 89.9395 87.4846 89.795C87.5442 89.6506 87.5765 89.4779 87.5774 89.2794C87.5807 89.085 87.5541 88.8199 87.4959 88.4904L86.2028 80.7062L87.7415 79.8179L93.3681 85.1716C93.6173 85.4128 93.8082 85.572 93.9374 85.6624C94.0643 85.7487 94.1957 85.8049 94.3334 85.8243C94.467 85.8462 94.6259 85.826 94.8164 85.7655L95.0356 86.145L91.8551 87.9812L91.636 87.6017C91.8197 87.4627 91.9372 87.3233 91.9797 87.1778C92.0246 87.0364 92.0002 86.8799 91.9073 86.719C91.8383 86.5994 91.7497 86.4745 91.6375 86.3468C91.5252 86.2191 91.3768 86.0573 91.1863 85.8703L90.7033 85.3956L90.7009 85.3915ZM88.0727 86.0123L90.1477 84.8144L87.3558 82.1031L88.0769 86.0099L88.0727 86.0123ZM96.007 82.988C96.3662 83.3911 96.7224 83.6365 97.0803 83.7324C97.4317 83.8266 97.8283 83.7515 98.2615 83.5015C98.4884 83.3705 98.6691 83.2166 98.8053 83.0335C98.9416 82.8503 99.0145 82.6432 99.0241 82.4121C99.0378 82.1787 98.9676 81.9332 98.8176 81.6733C98.6794 81.4341 98.515 81.254 98.3283 81.1308C98.1417 81.0075 97.8996 80.9218 97.6153 80.877C97.3309 80.8321 96.9568 80.8226 96.5103 80.8494C96.1234 80.8747 95.7648 80.8728 95.4285 80.8524C95.0923 80.8321 94.7836 80.7738 94.5025 80.6775C94.2214 80.5813 93.9639 80.4495 93.7397 80.2709C93.5115 80.0947 93.3161 79.861 93.1517 79.5763C92.8802 79.1061 92.7623 78.6351 92.8069 78.1694C92.8515 77.7036 93.0445 77.2567 93.3882 76.8327C93.732 76.4087 94.1976 76.0244 94.7793 75.6886C95.1216 75.4909 95.4571 75.3193 95.7879 75.1778C96.1187 75.0363 96.5092 74.8933 96.9641 74.7572L97.9287 76.4279L97.1408 76.8828C96.8927 76.6245 96.6614 76.4335 96.4435 76.3228C96.2297 76.2097 96.0091 76.1611 95.7899 76.1721C95.5732 76.1872 95.3325 76.2657 95.0767 76.4134C94.8581 76.5396 94.6815 76.6911 94.5576 76.8671C94.4296 77.0455 94.3578 77.2355 94.3469 77.4452C94.336 77.655 94.3913 77.8651 94.5152 78.0796C94.6438 78.3024 94.797 78.4725 94.9765 78.5833C95.1584 78.6983 95.3933 78.7717 95.6859 78.8118C95.9785 78.8518 96.3779 78.8577 96.88 78.8319C97.4973 78.8055 98.0067 78.8304 98.4106 78.9107C98.8186 78.9886 99.1667 79.1342 99.4541 79.3368C99.7416 79.5393 99.9957 79.8271 100.208 80.1942C100.482 80.6686 100.606 81.1413 100.587 81.6141C100.569 82.0868 100.406 82.5383 100.092 82.9669C99.783 83.3931 99.351 83.769 98.8023 84.0857C98.4104 84.312 97.9901 84.5272 97.5391 84.7271C97.088 84.927 96.6562 85.0938 96.2308 85.2239L95.2067 83.4501L95.9946 82.9952L96.007 82.988ZM102.611 79.175C102.971 79.5781 103.327 79.8235 103.685 79.9194C104.036 80.0135 104.433 79.9385 104.866 79.6884C105.093 79.5574 105.273 79.4036 105.41 79.2204C105.546 79.0373 105.619 78.8302 105.628 78.5991C105.642 78.3657 105.572 78.1202 105.422 77.8603C105.284 77.6211 105.119 77.441 104.933 77.3178C104.746 77.1945 104.504 77.1087 104.22 77.0639C103.935 77.0191 103.561 77.0095 103.115 77.0364C102.728 77.0617 102.369 77.0598 102.033 77.0394C101.697 77.019 101.388 76.9607 101.107 76.8645C100.826 76.7683 100.568 76.6365 100.344 76.4579C100.116 76.2816 99.9204 76.048 99.7537 75.7592C99.4822 75.2889 99.3643 74.818 99.4089 74.3522C99.4535 73.8864 99.6465 73.4395 99.9902 73.0155C100.334 72.5916 100.8 72.2072 101.385 71.869C101.728 71.6714 102.063 71.4997 102.394 71.3582C102.725 71.2167 103.115 71.0738 103.57 70.9376L104.535 72.6083L103.747 73.0632C103.499 72.805 103.267 72.614 103.05 72.5033C102.836 72.3902 102.615 72.3415 102.396 72.3526C102.179 72.3677 101.939 72.4462 101.683 72.5938C101.464 72.7201 101.288 72.8715 101.164 73.0475C101.036 73.2259 100.964 73.4159 100.953 73.6257C100.942 73.8355 100.997 74.0456 101.121 74.2601C101.25 74.4829 101.403 74.6529 101.583 74.7638C101.764 74.8788 101.999 74.9522 102.292 74.9922C102.585 75.0323 102.984 75.0382 103.486 75.0123C104.103 74.9859 104.613 75.0108 105.017 75.0912C105.425 75.1691 105.773 75.3147 106.06 75.5172C106.348 75.7198 106.602 76.0076 106.814 76.3747C107.085 76.845 107.212 77.3218 107.194 77.7945C107.175 78.2673 107.012 78.7188 106.699 79.1474C106.389 79.5735 105.957 79.9494 105.408 80.2662C105.017 80.4925 104.596 80.7076 104.145 80.9076C103.694 81.1075 103.262 81.2742 102.837 81.4044L101.813 79.6305L102.601 79.1756L102.611 79.175ZM111.121 74.9275C111.266 75.1791 111.379 75.3559 111.462 75.4512C111.544 75.5466 111.621 75.6124 111.702 75.6481C111.783 75.6838 111.876 75.7017 111.982 75.6953C112.089 75.6889 112.238 75.6522 112.43 75.5852L112.649 75.9647L109.551 77.7533L109.332 77.3738C109.451 77.2557 109.543 77.1478 109.599 77.0547C109.655 76.9617 109.681 76.8641 109.677 76.7619C109.673 76.6597 109.641 76.5465 109.582 76.4156C109.525 76.2888 109.441 76.1338 109.334 75.9481L106.469 70.9856C106.364 70.8041 106.274 70.658 106.191 70.5413C106.111 70.4224 106.029 70.3376 105.942 70.2831C105.856 70.2285 105.758 70.2024 105.65 70.2046C105.539 70.2028 105.399 70.2282 105.233 70.2744L105.014 69.8949L108.36 67.9634C109.329 67.4037 110.159 67.1554 110.842 67.2233C111.525 67.2911 112.078 67.6869 112.495 68.4088C112.79 68.9203 112.933 69.426 112.926 69.9365C112.915 70.4429 112.75 70.918 112.433 71.3596C112.116 71.8012 111.632 72.2122 110.989 72.5837C110.618 72.7981 110.308 72.9661 110.059 73.0877L111.123 74.9316L111.121 74.9275ZM109.68 72.4318L110.175 72.146C110.559 71.9245 110.833 71.6946 110.996 71.4523C111.158 71.2099 111.227 70.939 111.199 70.6419C111.172 70.3384 111.042 69.9898 110.809 69.5855C110.578 69.1854 110.341 68.8987 110.094 68.7279C109.851 68.5547 109.592 68.4784 109.32 68.5033C109.053 68.5257 108.752 68.6334 108.422 68.8239C108.154 68.9787 107.948 69.0978 107.806 69.1959L109.678 72.4383L109.68 72.4318ZM120.713 71.4303C119.582 72.0828 118.546 72.2411 117.6 71.9073C116.654 71.5736 115.798 70.7479 115.038 69.432C114.54 68.5698 114.25 67.7528 114.171 66.9786C114.095 66.2085 114.226 65.5113 114.577 64.88C114.926 64.2551 115.468 63.7274 116.206 63.3011C117.353 62.639 118.406 62.4713 119.362 62.7937C120.321 63.1203 121.174 63.9313 121.922 65.2266C122.341 65.9526 122.614 66.6255 122.745 67.2429C122.876 67.8603 122.88 68.4299 122.755 68.9474C122.635 69.4625 122.398 69.9292 122.051 70.3384C121.701 70.75 121.259 71.1094 120.714 71.4238L120.713 71.4303ZM116.779 68.2178C117.448 69.3769 118.086 70.1581 118.691 70.5678C119.294 70.9734 119.887 71.0103 120.457 70.6817C120.754 70.5102 120.96 70.2865 121.073 70.0066C121.187 69.7266 121.227 69.4062 121.191 69.0477C121.154 68.6892 121.054 68.2962 120.881 67.8734C120.709 67.4505 120.49 67.0048 120.218 66.5346C119.778 65.7714 119.347 65.1677 118.927 64.717C118.51 64.2705 118.098 63.9857 117.704 63.8664C117.308 63.7429 116.919 63.7919 116.539 64.011C115.982 64.3325 115.725 64.8388 115.757 65.524C115.792 66.2134 116.134 67.1105 116.775 68.2201L116.779 68.2178ZM128.702 66.6912L125.678 68.4369L125.459 68.0574C125.578 67.9393 125.67 67.8314 125.726 67.7383C125.782 67.6453 125.808 67.5477 125.804 67.4455C125.8 67.3434 125.768 67.2301 125.709 67.0992C125.652 66.9724 125.568 66.8174 125.461 66.6317L122.596 61.6692C122.491 61.4877 122.401 61.3416 122.317 61.2249C122.238 61.106 122.156 61.0212 122.069 60.9667C121.983 60.9121 121.885 60.886 121.777 60.8882C121.665 60.8864 121.526 60.9118 121.36 60.958L121.141 60.5785L124.499 58.6398C124.953 58.3779 125.356 58.1894 125.709 58.0679C126.062 57.9463 126.396 57.8858 126.709 57.8755C126.969 57.8685 127.217 57.9069 127.45 57.9868C127.685 58.0709 127.898 58.2011 128.096 58.3727C128.296 58.5485 128.479 58.7787 128.646 59.0674C128.862 59.4428 128.982 59.8027 129.007 60.1512C129.03 60.4955 128.981 60.8207 128.859 61.1332C128.739 61.4392 128.535 61.7822 128.25 62.1557L128.284 62.2134C128.64 62.1728 128.97 62.2021 129.273 62.297C129.577 62.3961 129.897 62.5584 130.226 62.7861L131.042 63.3603C131.405 63.6181 131.716 63.7851 131.979 63.8696C132.24 63.9499 132.488 63.95 132.728 63.8609L132.947 64.2404L130.727 65.5218C130.328 65.3451 129.812 65.0325 129.182 64.5881L128.163 63.8618C127.858 63.6475 127.627 63.5055 127.457 63.4389C127.29 63.3699 127.144 63.3446 127.015 63.3588C126.885 63.3729 126.714 63.4387 126.504 63.5601L126.17 63.7531L127.241 65.6094C127.408 65.8981 127.537 66.0931 127.633 66.192C127.724 66.2932 127.83 66.353 127.949 66.3778C128.068 66.4027 128.244 66.3836 128.481 66.3182L128.7 66.6977L128.702 66.6912ZM123.935 59.873L125.783 63.0741L126.352 62.7455C126.662 62.5669 126.89 62.3803 127.04 62.1835C127.19 61.9867 127.285 61.7783 127.314 61.5631C127.344 61.3479 127.327 61.127 127.258 60.9028C127.189 60.6786 127.083 60.4481 126.945 60.2088C126.642 59.6849 126.292 59.3645 125.899 59.2451C125.502 59.1281 125.062 59.2057 124.58 59.4844C124.25 59.6749 124.031 59.8011 123.935 59.873ZM135.432 62.8002L135.213 62.4207C135.357 62.2989 135.466 62.1921 135.534 62.0919C135.603 61.9918 135.638 61.8894 135.638 61.7848C135.635 61.6761 135.607 61.5604 135.546 61.4254C135.487 61.2945 135.4 61.1354 135.295 60.9539L131.98 55.2117L131.514 55.4808C131.283 55.6142 131.122 55.7455 131.03 55.8705C130.937 55.9956 130.879 56.1442 130.857 56.3056C130.833 56.4735 130.843 56.6713 130.889 56.9033C130.935 57.1353 130.986 57.3478 131.045 57.5449L130.257 57.9997L129.09 55.9784L135.867 52.0654L137.034 54.0867L136.246 54.5416C136.022 54.3246 135.852 54.164 135.74 54.0641C135.627 53.9642 135.518 53.8896 135.418 53.8316C135.315 53.7759 135.221 53.7367 135.13 53.7123C135.039 53.6879 134.95 53.6783 134.865 53.6834C134.78 53.6885 134.685 53.7048 134.577 53.7455C134.468 53.7862 134.336 53.8517 134.179 53.9422L133.762 54.1828L137.077 59.925C137.194 60.1271 137.293 60.2791 137.361 60.3775C137.435 60.4776 137.503 60.5482 137.57 60.5975C137.637 60.6469 137.705 60.679 137.772 60.69C137.841 60.705 137.925 60.7064 138.022 60.6942C138.12 60.6819 138.241 60.6448 138.389 60.5868L138.608 60.9663L135.428 62.8026L135.432 62.8002Z" fill="#868686"/>
</g>
<g style="mix-blend-mode:multiply">
<path d="M127.062 104.909C113.469 112.756 108.815 130.14 116.663 143.732C124.51 157.325 141.894 161.979 155.486 154.132C169.079 146.284 173.733 128.9 165.886 115.308C158.038 101.716 140.654 97.0612 127.062 104.909ZM166.512 120.023C166.175 119.497 166.051 118.777 165.82 118.167C166.148 118.869 166.439 119.581 166.699 120.3C166.639 120.214 166.576 120.124 166.512 120.023ZM167.4 136.517C165.533 143.497 161.056 149.327 154.8 152.944C148.542 156.557 141.255 157.519 134.277 155.646C127.298 153.779 121.468 149.302 117.851 143.047C114.238 136.789 113.275 129.501 115.148 122.523C115.192 122.361 115.246 122.197 115.292 122.039C115.357 122.342 115.409 122.642 115.387 122.947C115.341 123.666 114.878 124.208 114.792 124.907C114.719 125.543 114.837 126.366 115.001 126.937C115.181 127.553 115.636 128.16 115.758 128.81C115.914 129.633 115.706 130.292 116.246 131.036C117.361 130.767 115.974 129.318 116.722 128.765C117.342 129.248 117.852 130.522 118.177 131.247C118.624 132.249 118.574 132.591 119.608 133.077C120.425 133.464 120.821 133.807 121.747 133.41C122.598 133.045 123.131 133.216 123.906 133.786C124.593 133.566 125.021 133.45 125.493 134.086C125.842 134.082 126.618 134.272 126.941 134.184C127.407 134.058 127.754 133.088 128.395 133.312C129.463 133.685 129.14 136.468 129.266 137.287C129.453 138.487 130.229 139.965 131.568 140.132C132.256 140.219 132.864 140.099 133.399 140.664C133.894 141.187 134.075 141.759 134.674 142.178C135.612 142.83 136.745 142.572 137.825 142.861C139.243 143.241 139.855 144.444 140.589 145.715C141.358 147.047 142.449 147.765 143.327 148.886C144.235 150.04 145.281 150.993 146.245 152.053C146.972 152.854 148.561 153.779 149.597 152.934C149.425 152.455 148.78 152.377 148.479 151.979C148.203 151.615 148.077 151.149 147.758 150.778C147.129 150.041 146.856 149.549 146.986 148.517C147.035 148.154 147.182 147.788 147.232 147.418C147.334 146.699 147.123 147.019 146.794 146.489C146.383 145.824 146.782 146.039 147.065 145.595C147.213 145.366 147.258 144.901 147.321 144.639C147.462 144.063 147.756 143.304 147.775 142.71C147.799 142.036 147.362 141.375 147.387 140.685C147.412 139.889 147.927 139.592 148.216 138.919C148.586 138.045 148.018 137.68 147.747 136.935C147.296 135.688 147.086 134.143 147.281 132.831C147.525 131.178 147.351 129.991 145.629 129.533C144.779 129.309 144.58 129.611 143.755 129.84C143.127 130.01 142.403 129.9 141.81 130.149C141.452 130.3 141.327 130.532 140.977 130.63C140.649 130.72 140.586 130.525 140.288 130.703C139.844 130.964 139.76 132.256 139.041 131.879C138.641 131.67 138.747 130.388 138.463 129.963C138.112 129.44 137.398 128.67 136.694 128.68C136.428 128.685 135.968 128.929 135.67 128.974C135.313 129.032 134.924 129.015 134.569 129C134.104 128.976 133.225 128.978 132.853 128.676C132.426 128.9 132.008 128.833 131.588 129.087C131.211 129.31 131.058 129.635 130.623 129.826C130.24 129.991 129.684 129.933 129.327 130.211C129.089 130.398 128.898 130.953 128.749 131.21C128.348 131.887 127.858 132.495 127.273 132.997C126.368 133.773 125.963 133.49 125.477 132.516L125.148 132.299C124.919 131.034 124.199 131.351 123.301 131.528C122.767 130.841 123.379 129.778 122.518 129.181C121.718 129.588 122.131 132.264 120.93 131.698C120.137 131.326 119.787 129.196 119.862 128.448C119.938 127.695 120.779 125.922 121.392 125.459C121.865 125.097 122.446 125.064 122.903 125.4C123.401 125.767 123.387 126.391 123.773 126.905C124.34 126.374 123.69 125.639 123.404 125.21C122.923 124.492 123.349 124.323 123.42 123.561C123.483 122.87 123.216 122.282 123.375 121.558C123.499 120.991 123.667 120.377 123.843 119.825C124.04 119.194 124.533 118.953 124.802 118.418C125.208 117.607 123.875 117.298 124.876 116.803C125.234 116.623 125.185 116.938 125.583 116.57C125.751 116.413 126.007 116.029 126.162 115.829C126.869 114.92 126.156 115.2 125.448 114.955C124.547 114.644 125.375 114.314 125.877 113.898C126.245 113.592 126.082 113.51 126.579 113.542C127.018 113.569 126.997 113.961 127.445 113.68C128.303 113.146 127.189 112.618 126.826 112.437C126.204 112.131 125.917 111.834 125.2 112.221C125.138 111.96 124.974 111.658 124.751 111.501C124.203 111.922 123.85 111.549 123.302 111.639C122.383 111.79 122.86 112.34 122.793 112.939C122.728 113.56 122.072 113.834 122.145 114.502C122.22 115.195 122.697 115.487 121.722 115.846C121.648 115.443 121.362 115.042 121.136 114.699C120.857 114.816 120.584 114.886 120.3 114.946C119.785 114.055 120.728 113.411 121.349 112.943C122.045 112.414 121.848 111.511 122.446 110.995C123 110.515 124.033 111.266 124.466 110.235C124.715 109.646 124.394 109.567 124.048 109.339C123.956 109.276 123.622 109.21 123.519 109.165C123.506 109.162 123.501 109.154 123.488 109.15C124.019 108.689 124.569 108.251 125.142 107.832C125.45 108.1 125.929 108.357 126.198 108.509C126.395 108.621 126.649 108.623 126.834 108.764C127.047 108.922 126.985 109.31 127.334 109.295C127.872 109.275 128.246 107.151 128.395 106.751C128.591 106.242 128.725 105.951 128.474 105.716C130.434 104.662 132.49 103.859 134.598 103.319C134.847 103.417 135.103 103.517 135.37 103.638C135.945 103.9 136.376 104.179 137.068 104.044C137.468 103.966 138.521 103.331 138.518 104.345C138.514 105.282 137.529 104.624 137.194 104.52C136.734 104.379 135.69 104.525 136.122 105.216C136.768 106.24 139.03 104.709 139.187 106.153C139.563 106.156 140.286 106.112 140.431 106.573C140.613 107.145 139.763 107.207 140.149 107.847C140.701 108.755 142.142 108.935 142.887 108.065C143.677 107.136 142.132 106.185 143.19 105.388C143.606 105.07 143.946 105.05 144.536 105.138C145.016 105.207 145.567 105.676 145.991 105.371C145.874 105.064 145.547 104.984 145.362 104.749C145.763 104.633 146.717 104.666 147.095 104.854C147.667 105.14 148.018 105.823 148.417 104.801C148.253 104.774 148.081 104.599 147.978 104.564C148.927 104.017 149.82 104.029 150.702 104.614C152.676 105.928 149.593 105.761 150.041 106.784C149.388 106.93 148.887 106.625 148.256 106.637C147.958 106.644 147.575 106.953 147.328 106.925C146.987 106.886 146.861 106.535 146.551 106.483C145.331 106.286 144.077 108.467 143.566 109.345C143.429 109.584 143.217 109.722 143.206 110.026C143.184 110.55 143.583 110.452 143.71 110.852C143.898 111.425 143.37 112.044 143.403 112.569C143.487 113.829 145.279 114.665 145.776 115.83C146.052 116.479 145.776 117.507 146.321 117.869C146.554 118.026 147.037 117.995 147.329 118.168C147.596 118.326 147.826 118.601 148.138 118.74C149.147 119.202 150.454 119.608 151.53 119.966C152.142 120.168 152.716 119.991 153.206 119.554C153.613 119.192 154.224 118.631 154.536 118.181C154.952 117.578 154.803 117.147 155.555 117.059C156.153 116.989 156.926 117.357 157.196 116.53C157.918 116.712 157.859 117.792 158.046 118.354C158.286 119.074 158.863 119.483 159.576 119.803C160.429 120.185 160.607 120.237 161.013 121.168C161.334 121.896 161.521 122.619 161.763 123.381C161.996 124.11 161.867 124.839 162.283 125.512C162.668 126.131 163.236 126.485 163.544 127.209C163.815 127.85 164.19 128.585 164.375 129.259C164.56 129.95 164.446 130.725 164.62 131.445C164.789 132.128 165.274 132.855 165.959 133.097C166.672 133.351 166.928 132.824 167.208 132.156C167.759 130.842 167.478 129.316 167.546 127.929C167.621 126.516 167.75 125.188 167.581 123.866C167.545 123.585 167.532 123.295 167.519 123.006C168.618 127.404 168.599 132.03 167.392 136.532L167.4 136.517Z" fill="#868686"/>
</g>
<path d="M82.886 91.6914C83.0312 91.943 83.1443 92.1198 83.2268 92.2151C83.3094 92.3105 83.3859 92.3763 83.467 92.412C83.5481 92.4477 83.6409 92.4656 83.7472 92.4592C83.8536 92.4528 84.0029 92.4161 84.1952 92.3491L84.4143 92.7286L81.3163 94.5172L81.0972 94.1377C81.216 94.0196 81.3077 93.9116 81.364 93.8186C81.4203 93.7256 81.4465 93.628 81.4425 93.5258C81.4385 93.4236 81.4061 93.3103 81.347 93.1794C81.2903 93.0527 81.2063 92.8977 81.0991 92.712L78.234 87.7495C78.1292 87.568 78.0393 87.4218 77.9555 87.3052C77.8758 87.1862 77.7939 87.1015 77.7074 87.047C77.6209 86.9924 77.5233 86.9663 77.4146 86.9685C77.3035 86.9666 77.1642 86.9921 76.9984 87.0383L76.7793 86.6588L80.1248 84.7273C81.0942 84.1676 81.9244 83.9193 82.6071 83.9871C83.2898 84.055 83.8428 84.4508 84.2595 85.1727C84.5549 85.6842 84.6983 86.1899 84.6882 86.6962C84.678 87.2026 84.5123 87.6778 84.1953 88.1194C83.8782 88.5609 83.395 88.9719 82.7514 89.3435C82.3802 89.5578 82.0701 89.7258 81.8214 89.8475L82.886 91.6914ZM81.4451 89.1957L81.9401 88.9099C82.3237 88.6884 82.598 88.4585 82.7606 88.2162C82.9232 87.9738 82.9923 87.7029 82.9638 87.4058C82.937 87.1023 82.8073 86.7537 82.5739 86.3494C82.3428 85.9493 82.1058 85.6626 81.8587 85.4918C81.6116 85.3209 81.3571 85.2423 81.0855 85.2671C80.8179 85.2896 80.5171 85.3973 80.1871 85.5878C79.919 85.7426 79.7127 85.8617 79.5713 85.9598L81.4433 89.2022L81.4451 89.1957ZM90.8982 85.7345L88.4396 87.154L88.5666 87.8122C88.6011 87.9958 88.6414 88.1705 88.6918 88.3339C88.7421 88.4973 88.8096 88.6619 88.9025 88.8228C89.1193 89.1981 89.434 89.286 89.8508 89.0838L90.0699 89.4633L87.6113 90.8828L87.3922 90.5033C87.5229 90.4058 87.6222 90.2825 87.6818 90.138C87.7415 89.9936 87.7738 89.821 87.7747 89.6224C87.7779 89.428 87.7513 89.1629 87.6932 88.8335L86.4 81.0492L87.9387 80.1609L93.5653 85.5147C93.8145 85.7558 94.0055 85.9151 94.1347 86.0055C94.2615 86.0917 94.3929 86.1479 94.5307 86.1674C94.6643 86.1892 94.8231 86.169 95.0137 86.1085L95.2328 86.488L92.0523 88.3243L91.8332 87.9447C92.0169 87.8057 92.1345 87.6663 92.177 87.5208C92.2218 87.3794 92.1975 87.2229 92.1046 87.062C92.0355 86.9424 91.947 86.8175 91.8347 86.6898C91.7225 86.5621 91.5741 86.4003 91.3836 86.2133L90.9005 85.7386L90.8982 85.7345ZM88.27 86.3553L90.3449 85.1574L87.553 82.4461L88.2741 86.353L88.27 86.3553ZM96.2043 83.3311C96.5635 83.7342 96.9197 83.9795 97.2775 84.0754C97.6289 84.1696 98.0256 84.0946 98.4588 83.8445C98.6856 83.7135 98.8663 83.5597 99.0026 83.3765C99.1388 83.1933 99.2118 82.9862 99.2214 82.7552C99.2351 82.5217 99.1649 82.2762 99.0148 82.0164C98.8767 81.7771 98.7123 81.597 98.5256 81.4738C98.3389 81.3506 98.0969 81.2648 97.8125 81.22C97.524 81.1775 97.1541 81.1656 96.7076 81.1924C96.3207 81.2178 95.9621 81.2158 95.6258 81.1954C95.2895 81.1751 94.9809 81.1168 94.6998 81.0205C94.4187 80.9243 94.1611 80.7925 93.937 80.6139C93.7087 80.4377 93.5133 80.204 93.349 79.9194C93.0751 79.445 92.9596 78.9781 93.0042 78.5124C93.0488 78.0466 93.2418 77.5997 93.5855 77.1757C93.9334 76.7494 94.3949 76.3674 94.9806 76.0292C95.323 75.8315 95.6584 75.6599 95.9893 75.5184C96.3201 75.3769 96.7106 75.2339 97.1655 75.0978L98.1301 76.7685L97.3422 77.2234C97.094 76.9651 96.8628 76.7741 96.6449 76.6634C96.4311 76.5504 96.2105 76.5017 95.9913 76.5127C95.7746 76.5279 95.5339 76.6063 95.2781 76.754C95.0595 76.8802 94.8829 77.0317 94.759 77.2077C94.631 77.3861 94.5592 77.5761 94.5483 77.7859C94.5374 77.9957 94.5927 78.2058 94.7166 78.4203C94.8452 78.643 94.9984 78.8131 95.1779 78.924C95.3598 79.0389 95.5946 79.1123 95.8873 79.1524C96.1799 79.1925 96.5793 79.1984 97.0814 79.1725C97.6987 79.1461 98.2081 79.171 98.612 79.2513C99.02 79.3293 99.3681 79.4748 99.6555 79.6774C99.943 79.88 100.197 80.1677 100.409 80.5349C100.683 81.0093 100.807 81.482 100.789 81.9547C100.77 82.4274 100.607 82.879 100.294 83.3075C99.9844 83.7337 99.5524 84.1096 99.0037 84.4264C98.6118 84.6526 98.1915 84.8678 97.7404 85.0677C97.2894 85.2677 96.8576 85.4344 96.4322 85.5645L95.4081 83.7907L96.196 83.3358L96.2043 83.3311ZM102.809 79.518C103.168 79.9211 103.524 80.1665 103.882 80.2624C104.233 80.3566 104.63 80.2815 105.063 80.0315C105.29 79.9005 105.471 79.7466 105.607 79.5635C105.743 79.3803 105.816 79.1732 105.826 78.9421C105.839 78.7087 105.769 78.4632 105.619 78.2033C105.481 77.9641 105.317 77.784 105.13 77.6608C104.943 77.5375 104.701 77.4518 104.417 77.4069C104.133 77.3621 103.758 77.3526 103.312 77.3794C102.925 77.4047 102.566 77.4028 102.23 77.3824C101.894 77.3621 101.585 77.3038 101.304 77.2075C101.023 77.1113 100.765 76.9795 100.541 76.8009C100.313 76.6247 100.118 76.391 99.9533 76.1063C99.6795 75.6319 99.5639 75.1651 99.6085 74.6993C99.6531 74.2336 99.8461 73.7867 100.19 73.3627C100.534 72.9387 100.999 72.5544 101.585 72.2162C101.927 72.0185 102.263 71.8469 102.594 71.7054C102.924 71.5639 103.315 71.4209 103.77 71.2848L104.734 72.9555L103.947 73.4104C103.698 73.1521 103.467 72.9611 103.249 72.8504C103.035 72.7373 102.815 72.6887 102.596 72.6997C102.379 72.7149 102.138 72.7933 101.882 72.941C101.664 73.0672 101.487 73.2187 101.363 73.3947C101.235 73.5731 101.164 73.7631 101.153 73.9729C101.142 74.1826 101.197 74.3927 101.321 74.6072C101.45 74.83 101.607 74.9977 101.782 75.1109C101.964 75.2259 102.199 75.2993 102.492 75.3394C102.784 75.3794 103.184 75.3853 103.686 75.3595C104.299 75.3355 104.812 75.358 105.216 75.4383C105.624 75.5163 105.972 75.6618 106.26 75.8644C106.55 76.0711 106.801 76.3547 107.013 76.7218C107.287 77.1962 107.416 77.6665 107.393 78.1417C107.375 78.6144 107.212 79.0659 106.898 79.4945C106.589 79.9207 106.157 80.2966 105.608 80.6133C105.216 80.8396 104.796 81.0548 104.345 81.2547C103.894 81.4546 103.462 81.6214 103.037 81.7515L102.012 79.9777L102.8 79.5228L102.809 79.518ZM111.318 75.2705C111.463 75.5222 111.577 75.6989 111.659 75.7942C111.742 75.8896 111.818 75.9554 111.899 75.9911C111.98 76.0268 112.073 76.0447 112.18 76.0383C112.286 76.0319 112.435 75.9952 112.627 75.9282L112.847 76.3077L109.749 78.0963L109.529 77.7168C109.648 77.5987 109.74 77.4908 109.796 77.3978C109.853 77.3048 109.879 77.2072 109.875 77.105C109.871 77.0028 109.838 76.8895 109.779 76.7586C109.723 76.6318 109.639 76.4768 109.531 76.2912L106.666 71.3286C106.561 71.1471 106.472 71.001 106.388 70.8844C106.308 70.7654 106.226 70.6807 106.14 70.6261C106.053 70.5715 105.956 70.5454 105.847 70.5476C105.736 70.5458 105.596 70.5712 105.431 70.6174L105.212 70.2379L108.557 68.3064C109.526 67.7467 110.357 67.4984 111.039 67.5663C111.722 67.6341 112.275 68.0299 112.692 68.7518C112.987 69.2633 113.131 69.769 113.123 70.2795C113.113 70.7859 112.947 71.261 112.63 71.7026C112.313 72.1442 111.834 72.5528 111.186 72.9267C110.815 73.1411 110.505 73.3091 110.256 73.4307L111.321 75.2747L111.318 75.2705ZM109.877 72.7748L110.372 72.489C110.756 72.2675 111.03 72.0377 111.193 71.7953C111.355 71.5529 111.425 71.282 111.396 70.985C111.369 70.6814 111.24 70.3328 111.006 69.9285C110.775 69.5284 110.538 69.2417 110.291 69.0709C110.048 68.8977 109.789 68.8214 109.518 68.8463C109.25 68.8687 108.949 68.9764 108.619 69.1669C108.351 69.3218 108.145 69.4408 108.004 69.539L109.876 72.7813L109.877 72.7748ZM120.91 71.7733C119.78 72.4259 118.744 72.5841 117.797 72.2503C116.851 71.9166 115.995 71.0909 115.235 69.775C114.737 68.9128 114.447 68.0958 114.369 67.3216C114.293 66.5515 114.424 65.8544 114.774 65.223C115.123 64.5981 115.665 64.0705 116.404 63.6441C117.55 62.982 118.603 62.8143 119.559 63.1368C120.518 63.4634 121.371 64.2743 122.119 65.5696C122.538 66.2956 122.811 66.9685 122.942 67.5859C123.073 68.2034 123.077 68.7729 122.953 69.2904C122.828 69.8079 122.595 70.2722 122.249 70.6814C121.898 71.093 121.456 71.4524 120.912 71.7668L120.91 71.7733ZM116.976 68.5608C117.645 69.7199 118.283 70.5011 118.888 70.9108C119.491 71.3164 120.08 71.3557 120.654 71.0247C120.951 70.8532 121.157 70.6295 121.271 70.3496C121.384 70.0696 121.424 69.7492 121.388 69.3907C121.352 69.0323 121.251 68.6392 121.078 68.2164C120.906 67.7935 120.687 67.3478 120.416 66.8776C119.975 66.1144 119.544 65.5107 119.124 65.06C118.707 64.6135 118.295 64.3288 117.902 64.2094C117.506 64.0859 117.116 64.1349 116.736 64.354C116.18 64.6755 115.919 65.1777 115.954 65.867C115.989 66.5564 116.331 67.4535 116.972 68.5632L116.976 68.5608ZM128.899 67.0342L125.876 68.7799L125.656 68.4004C125.775 68.2823 125.867 68.1744 125.923 68.0814C125.98 67.9884 126.006 67.8908 126.002 67.7886C125.998 67.6864 125.965 67.5731 125.906 67.4422C125.85 67.3154 125.766 67.1604 125.658 66.9748L122.793 62.0122C122.688 61.8307 122.599 61.6846 122.515 61.568C122.435 61.449 122.353 61.3643 122.267 61.3097C122.18 61.2551 122.082 61.229 121.974 61.2312C121.863 61.2294 121.723 61.2548 121.558 61.301L121.338 60.9215L124.696 58.9829C125.15 58.7209 125.553 58.5324 125.906 58.4109C126.26 58.2894 126.593 58.2288 126.906 58.2185C127.166 58.2115 127.414 58.25 127.647 58.3299C127.882 58.4139 128.095 58.5441 128.293 58.7157C128.494 58.8915 128.676 59.1217 128.843 59.4105C129.06 59.7859 129.179 60.1457 129.205 60.4942C129.227 60.8385 129.179 61.1637 129.056 61.4762C128.936 61.7822 128.733 62.1252 128.448 62.4987L128.481 62.5564C128.837 62.5159 129.168 62.5451 129.47 62.6401C129.775 62.7391 130.094 62.9014 130.423 63.1291L131.239 63.7033C131.602 63.9611 131.913 64.1281 132.176 64.2126C132.437 64.293 132.685 64.293 132.925 64.2039L133.144 64.5835L130.925 65.8648C130.526 65.6881 130.01 65.3755 129.379 64.9311L128.36 64.2048C128.055 63.9905 127.825 63.8485 127.654 63.7819C127.488 63.713 127.341 63.6876 127.212 63.7018C127.082 63.7159 126.911 63.7817 126.701 63.9032L126.367 64.0961L127.439 65.9524C127.605 66.2411 127.734 66.4361 127.83 66.535C127.921 66.6362 128.027 66.696 128.146 66.7208C128.265 66.7457 128.441 66.7266 128.678 66.6612L128.898 67.0407L128.899 67.0342ZM124.132 60.2161L125.98 63.4172L126.55 63.0885C126.855 62.9123 127.087 62.7233 127.237 62.5265C127.388 62.3297 127.482 62.1213 127.512 61.9061C127.541 61.6909 127.524 61.47 127.455 61.2458C127.386 61.0216 127.28 60.7911 127.142 60.5518C126.84 60.0279 126.492 59.7116 126.096 59.5881C125.699 59.4711 125.26 59.5487 124.777 59.8274C124.447 60.0179 124.228 60.1441 124.132 60.2161ZM135.629 63.1432L135.41 62.7637C135.554 62.6419 135.663 62.5351 135.732 62.4349C135.8 62.3348 135.835 62.2324 135.835 62.1278C135.833 62.0191 135.804 61.9035 135.743 61.7684C135.684 61.6375 135.597 61.4784 135.493 61.2969L132.177 55.5547L131.711 55.8238C131.48 55.9572 131.32 56.0885 131.227 56.2135C131.134 56.3386 131.077 56.4872 131.054 56.6486C131.03 56.8165 131.04 57.0144 131.086 57.2463C131.132 57.4783 131.183 57.6908 131.242 57.8879L130.454 58.3428L129.287 56.3214L136.065 52.4084L137.232 54.4297L136.444 54.8846C136.219 54.6676 136.05 54.5071 135.937 54.4071C135.824 54.3072 135.715 54.2326 135.616 54.1746C135.512 54.1189 135.418 54.0797 135.327 54.0553C135.236 54.0309 135.148 54.0213 135.06 54.0223C134.975 54.0274 134.88 54.0437 134.772 54.0844C134.663 54.1251 134.53 54.1906 134.374 54.2811L133.957 54.5217L137.272 60.2639C137.389 60.466 137.488 60.618 137.556 60.7164C137.63 60.8165 137.698 60.8871 137.765 60.9364C137.832 60.9857 137.9 61.0179 137.967 61.0289C138.036 61.0439 138.12 61.0453 138.217 61.0331C138.314 61.0208 138.436 60.9836 138.584 60.9257L138.803 61.3052L135.623 63.1414L135.629 63.1432Z" fill="url(#paint2_linear_305_1856)"/>
<path d="M101.301 77.2032C101.582 77.2994 101.89 77.3577 102.227 77.3781C102.563 77.3984 102.922 77.4004 103.309 77.375C103.762 77.35 104.129 77.3578 104.413 77.4026C104.698 77.4474 104.938 77.5291 105.127 77.6564C105.295 77.7679 105.446 77.9339 105.576 78.1395C105.555 78.1024 105.54 78.067 105.518 78.0299C105.38 77.7906 105.216 77.6105 105.029 77.4873C104.842 77.3641 104.6 77.2783 104.316 77.2335C104.031 77.1887 103.657 77.1791 103.211 77.2059C102.824 77.2313 102.465 77.2293 102.129 77.2089C101.793 77.1886 101.484 77.1303 101.203 77.034C100.922 76.9378 100.664 76.806 100.44 76.6274C100.232 76.467 100.055 76.2557 99.8969 76.0006C99.916 76.0336 99.9244 76.0672 99.9458 76.1044C100.113 76.3931 100.308 76.6268 100.534 76.7989C100.762 76.9752 101.016 77.1093 101.297 77.2056L101.301 77.2032Z" fill="#FBFBFB"/>
<path d="M94.6963 81.0164C94.9773 81.1126 95.286 81.1709 95.6223 81.1913C95.9585 81.2117 96.3172 81.2136 96.704 81.1883C97.1571 81.1632 97.5246 81.171 97.809 81.2158C98.0934 81.2607 98.333 81.3423 98.5221 81.4697C98.691 81.5812 98.8418 81.7471 98.9715 81.9527C98.95 81.9156 98.9351 81.8802 98.9137 81.8431C98.7755 81.6038 98.6111 81.4238 98.4244 81.3005C98.2378 81.1773 97.9957 81.0915 97.7114 81.0467C97.427 81.0019 97.0529 80.9923 96.6064 81.0191C96.2195 81.0445 95.8609 81.0425 95.5246 81.0222C95.1883 81.0018 94.8797 80.9435 94.5986 80.8473C94.3175 80.751 94.06 80.6193 93.8358 80.4406C93.6277 80.2803 93.4507 80.069 93.2924 79.8138C93.3115 79.8468 93.3199 79.8805 93.3413 79.9176C93.5081 80.2064 93.7035 80.4401 93.9293 80.6122C94.1576 80.7884 94.4111 80.9226 94.6921 81.0188L94.6963 81.0164Z" fill="#FBFBFB"/>
<path d="M104.63 72.7776L103.842 73.2325C103.594 72.9742 103.363 72.7833 103.145 72.6726C102.931 72.5595 102.711 72.5108 102.492 72.5219C102.275 72.537 102.034 72.6155 101.778 72.7631C101.56 72.8894 101.383 73.0408 101.259 73.2168C101.131 73.3952 101.059 73.5852 101.049 73.795C101.038 74.0048 101.093 74.2149 101.217 74.4294C101.236 74.4624 101.261 74.4865 101.28 74.5195C101.187 74.3308 101.136 74.1462 101.146 73.9641C101.157 73.7543 101.229 73.5644 101.357 73.386C101.485 73.2076 101.657 73.0585 101.876 72.9323C102.132 72.7846 102.37 72.702 102.589 72.691C102.806 72.6758 103.023 72.7269 103.243 72.8417C103.461 72.9524 103.692 73.1434 103.94 73.4016L104.728 72.9467L104.63 72.7776Z" fill="#FBFBFB"/>
<path d="M81.7574 85.3182C81.5103 85.1474 81.2558 85.0688 80.9842 85.0936C80.7166 85.1161 80.4158 85.2238 80.0858 85.4143C79.8177 85.5691 79.6114 85.6882 79.47 85.7863L79.5677 85.9554C79.7073 85.8638 79.9153 85.7382 80.1834 85.5834C80.5134 85.3929 80.8143 85.2852 81.0818 85.2627C81.3494 85.2403 81.6079 85.3165 81.855 85.4874C82.0844 85.6465 82.303 85.9108 82.5184 86.2649C82.5018 86.236 82.4875 86.2113 82.4684 86.1783C82.2374 85.7781 82.0004 85.4914 81.7533 85.3206L81.7574 85.3182Z" fill="#FBFBFB"/>
<path d="M91.732 86.5123C91.6198 86.3846 91.4714 86.2227 91.2809 86.0357L90.7978 85.5611L88.3393 86.9805L88.4663 87.6387C88.5008 87.8223 88.5411 87.997 88.5915 88.1605C88.6418 88.3239 88.7093 88.4884 88.8022 88.6493C88.8117 88.6658 88.823 88.6758 88.8367 88.6899C88.7782 88.5697 88.7263 88.4511 88.6891 88.3296C88.6388 88.1662 88.5984 87.9915 88.5639 87.8079L88.4369 87.1497L90.8955 85.7302L91.3785 86.2048C91.569 86.3919 91.7216 86.5513 91.8297 86.6814C91.901 86.7668 91.9657 86.8504 92.0175 86.9305C92.008 86.914 92.0114 86.901 92.0019 86.8845C91.9329 86.7648 91.8443 86.64 91.732 86.5123Z" fill="#FBFBFB"/>
<path d="M87.4478 82.2752L88.1689 86.1821L88.2266 86.1487L87.5478 82.4485L90.1943 85.0127L90.2397 84.9865L87.4478 82.2752Z" fill="#FBFBFB"/>
<path d="M77.7022 87.0489C77.7887 87.1034 77.8706 87.1882 77.9503 87.3072C78.03 87.4261 78.1264 87.574 78.2288 87.7514L78.1311 87.5823C78.0263 87.4008 77.9365 87.2546 77.8526 87.138C77.7729 87.019 77.691 86.9343 77.6045 86.8798C77.518 86.8252 77.4204 86.799 77.3117 86.8013C77.2006 86.7994 77.0613 86.8249 76.8955 86.8711L76.9932 87.0402C77.159 86.994 77.3007 86.9727 77.4094 86.9704C77.5205 86.9723 77.6181 86.9984 77.7022 87.0489Z" fill="#FBFBFB"/>
<path d="M122.265 61.3162C122.351 61.3708 122.433 61.4555 122.513 61.5745C122.592 61.6935 122.689 61.8413 122.791 62.0187L122.694 61.8496C122.589 61.6681 122.499 61.522 122.415 61.4054C122.335 61.2864 122.254 61.2016 122.167 61.1471C122.081 61.0925 121.983 61.0664 121.874 61.0686C121.763 61.0668 121.624 61.0922 121.458 61.1384L121.556 61.3076C121.721 61.2613 121.863 61.24 121.972 61.2378C122.083 61.2396 122.181 61.2658 122.265 61.3162Z" fill="#FBFBFB"/>
<path d="M128.955 61.3027C128.834 61.6087 128.631 61.9517 128.346 62.3252L128.379 62.3829C128.43 62.3756 128.477 62.3813 128.526 62.3805C128.765 62.0503 128.943 61.7494 129.052 61.4718C129.173 61.1658 129.226 60.8383 129.2 60.4898C129.178 60.1455 129.058 59.7856 128.839 59.4061C128.824 59.3813 128.808 59.3631 128.796 59.3425C128.975 59.6796 129.082 60.0082 129.103 60.3207C129.125 60.665 129.077 60.9902 128.955 61.3027Z" fill="#FBFBFB"/>
<path d="M126 59.4228C125.603 59.3058 125.164 59.3834 124.681 59.662C124.351 59.8526 124.135 59.9829 124.036 60.0507L124.134 60.2198C124.232 60.152 124.449 60.0217 124.779 59.8312C125.261 59.5525 125.705 59.4725 126.098 59.5919C126.476 59.7037 126.806 60.0082 127.097 60.4837C127.078 60.4507 127.065 60.4195 127.046 60.3865C126.744 59.8626 126.394 59.5421 126 59.4228Z" fill="#FBFBFB"/>
<path d="M110.197 68.8993C109.954 68.7261 109.695 68.6498 109.424 68.6747C109.156 68.6971 108.855 68.8048 108.525 68.9954C108.257 69.1502 108.051 69.2692 107.909 69.3674L108.007 69.5365C108.147 69.4449 108.355 69.3193 108.623 69.1645C108.953 68.9739 109.254 68.8663 109.521 68.8438C109.789 68.8213 110.047 68.8976 110.294 69.0684C110.524 69.2275 110.742 69.4918 110.958 69.8459C110.941 69.8171 110.927 69.7923 110.908 69.7593C110.677 69.3592 110.44 69.0725 110.193 68.9017L110.197 68.8993Z" fill="#FBFBFB"/>
<path d="M119.03 64.8883C118.612 64.4417 118.201 64.157 117.807 64.0377C117.411 63.9142 117.022 63.9632 116.642 64.1823C116.085 64.5038 115.827 65.0101 115.86 65.6953C115.895 66.3847 116.237 67.2818 116.878 68.3914C116.894 68.4203 116.911 68.4492 116.928 68.4781C116.321 67.409 115.994 66.5366 115.96 65.8686C115.925 65.1792 116.185 64.6771 116.742 64.3555C117.122 64.1364 117.511 64.0874 117.907 64.2109C118.303 64.3344 118.708 64.6174 119.13 65.0616C119.529 65.4858 119.939 66.063 120.362 66.776C120.347 66.7512 120.335 66.7306 120.321 66.7058C119.88 65.9427 119.449 65.339 119.03 64.8883Z" fill="#FBFBFB"/>
<path d="M106.138 70.626C106.224 70.6806 106.306 70.7653 106.386 70.8843C106.466 71.0033 106.562 71.1512 106.664 71.3285L106.567 71.1594C106.462 70.9779 106.372 70.8318 106.288 70.7152C106.208 70.5962 106.127 70.5115 106.04 70.4569C105.954 70.4023 105.856 70.3762 105.747 70.3784C105.636 70.3766 105.497 70.402 105.331 70.4482L105.429 70.6174C105.595 70.5711 105.736 70.5498 105.845 70.5476C105.956 70.5494 106.054 70.5756 106.138 70.626Z" fill="#FBFBFB"/>
<path d="M98.0269 76.5913L97.239 77.0462C96.9908 76.788 96.7596 76.597 96.5417 76.4863C96.3279 76.3732 96.1073 76.3246 95.8881 76.3356C95.6714 76.3507 95.4307 76.4292 95.1749 76.5769C94.9563 76.7031 94.7797 76.8545 94.6558 77.0306C94.5278 77.209 94.456 77.3989 94.4451 77.6087C94.4342 77.8185 94.4895 78.0286 94.6134 78.2431C94.6324 78.2761 94.6573 78.3002 94.6764 78.3332C94.584 78.1446 94.5323 77.9599 94.5427 77.7779C94.5536 77.5681 94.6255 77.3781 94.7535 77.1997C94.8815 77.0213 95.0539 76.8722 95.2725 76.746C95.5283 76.5983 95.7666 76.5157 95.9858 76.5047C96.2025 76.4896 96.419 76.5406 96.6393 76.6554C96.8572 76.7661 97.0885 76.9571 97.3366 77.2154L98.1245 76.7605L98.0269 76.5913Z" fill="#FBFBFB"/>
<path d="M113.019 70.102C113.009 70.6084 112.843 71.0836 112.526 71.5251C112.209 71.9667 111.73 72.3753 111.082 72.7493C110.711 72.9636 110.401 73.1316 110.152 73.2532L110.25 73.4224C110.498 73.3007 110.808 73.1327 111.18 72.9184C111.823 72.5468 112.306 72.1358 112.624 71.6943C112.941 71.2527 113.106 70.7775 113.116 70.2712C113.127 69.7648 112.981 69.255 112.685 68.7434C112.666 68.7104 112.647 68.6774 112.624 68.6468C112.888 69.1325 113.024 69.6152 113.016 70.0979L113.019 70.102Z" fill="#FBFBFB"/>
<path d="M129.28 64.7618L128.261 64.0355C127.956 63.8212 127.725 63.6792 127.555 63.6126C127.388 63.5436 127.242 63.5183 127.112 63.5325C126.983 63.5466 126.812 63.6124 126.602 63.7338L126.268 63.9268L126.365 64.0959L126.699 63.903C126.91 63.7815 127.081 63.7158 127.21 63.7016C127.339 63.6874 127.488 63.7169 127.652 63.7817C127.819 63.8507 128.053 63.9903 128.359 64.2046L129.377 64.9309C130.008 65.3753 130.524 65.688 130.923 65.8646L133.142 64.5833L133.045 64.4141L130.825 65.6955C130.426 65.5188 129.91 65.2062 129.28 64.7618Z" fill="#FBFBFB"/>
<path d="M122.842 67.4231C122.972 68.0405 122.977 68.6101 122.852 69.1276C122.731 69.6427 122.495 70.1093 122.148 70.5185C121.797 70.9301 121.356 71.2896 120.811 71.6039C119.681 72.2565 118.645 72.4147 117.698 72.081C116.774 71.7566 115.941 70.9615 115.2 69.7064C115.214 69.7311 115.226 69.7518 115.24 69.7765C116 71.0924 116.856 71.9181 117.803 72.2519C118.749 72.5856 119.789 72.425 120.915 71.7748C121.456 71.4628 121.901 71.101 122.252 70.6894C122.603 70.2778 122.836 69.8136 122.956 69.2984C123.077 68.7833 123.073 68.2138 122.946 67.594C122.815 66.9766 122.542 66.3036 122.123 65.5776C122.106 65.5487 122.089 65.5199 122.073 65.491C122.462 66.1847 122.725 66.8304 122.848 67.4248L122.842 67.4231Z" fill="#FBFBFB"/>
<path d="M128.8 66.8648L125.776 68.6106L125.874 68.7797L128.898 67.034L128.8 66.8648Z" fill="#FBFBFB"/>
<path d="M132.179 55.5586L132.081 55.3895L131.615 55.6586C131.384 55.792 131.223 55.9233 131.13 56.0483C131.037 56.1734 130.98 56.322 130.958 56.4834C130.934 56.6513 130.944 56.8492 130.989 57.0811C131.035 57.3131 131.087 57.5256 131.145 57.7227L130.357 58.1776L130.455 58.3467L131.243 57.8918C131.184 57.6947 131.133 57.4823 131.087 57.2503C131.041 57.0183 131.031 56.8204 131.056 56.6525C131.08 56.4846 131.139 56.3402 131.228 56.2175C131.321 56.0924 131.481 55.9611 131.712 55.8277L132.179 55.5586Z" fill="#FBFBFB"/>
<path d="M135.843 54.2463C135.731 54.1463 135.621 54.0718 135.522 54.0137C135.418 53.9581 135.324 53.9189 135.233 53.8945C135.142 53.8701 135.054 53.8604 134.966 53.8614C134.881 53.8665 134.786 53.8829 134.678 53.9235C134.569 53.9642 134.437 54.0298 134.28 54.1203L133.863 54.3608L133.961 54.53L134.378 54.2894C134.534 54.1989 134.667 54.1333 134.775 54.0927C134.884 54.052 134.981 54.0291 135.064 54.0305C135.149 54.0254 135.24 54.0392 135.331 54.0636C135.422 54.088 135.516 54.1272 135.62 54.1829C135.723 54.2385 135.828 54.3155 135.941 54.4154C136.054 54.5153 136.221 54.6717 136.448 54.8929L137.235 54.438L137.138 54.2689L136.35 54.7238C136.126 54.5067 135.956 54.3462 135.843 54.2463Z" fill="#FBFBFB"/>
<path d="M138.714 61.1415L135.533 62.9778L135.631 63.1469L138.811 61.3107L138.714 61.1415Z" fill="#FBFBFB"/>
<path d="M107.297 77.9657C107.278 78.4384 107.115 78.89 106.802 79.3185C106.492 79.7447 106.06 80.1206 105.512 80.4374C105.12 80.6636 104.699 80.8788 104.248 81.0787C103.797 81.2787 103.365 81.4454 102.94 81.5755L103.038 81.7447C103.457 81.6128 103.895 81.4478 104.346 81.2479C104.797 81.0479 105.217 80.8328 105.609 80.6065C106.158 80.2898 106.586 79.9162 106.899 79.4877C107.209 79.0615 107.376 78.6076 107.394 78.1348C107.413 77.6621 107.286 77.1853 107.015 76.715C106.996 76.682 106.976 76.649 106.953 76.6184C107.196 77.0669 107.317 77.5142 107.298 77.9592L107.297 77.9657Z" fill="#FBFBFB"/>
<path d="M95.1258 86.3129L91.9453 88.1492L92.043 88.3183L95.2235 86.482L95.1258 86.3129Z" fill="#FBFBFB"/>
<path d="M89.9684 89.2895L87.5098 90.709L87.6074 90.8781L90.066 89.4586L89.9684 89.2895Z" fill="#FBFBFB"/>
<path d="M112.747 76.1386L109.649 77.9272L109.747 78.0964L112.845 76.3078L112.747 76.1386Z" fill="#FBFBFB"/>
<path d="M84.5877 86.5227C84.5776 87.0291 84.4119 87.5042 84.0948 87.9458C83.7777 88.3874 83.2945 88.7984 82.651 89.1699C82.2797 89.3843 81.9697 89.5523 81.7209 89.6739L81.8185 89.843C82.0673 89.7214 82.3774 89.5534 82.7486 89.3391C83.3921 88.9675 83.8754 88.5565 84.1924 88.115C84.5095 87.6734 84.6752 87.1982 84.6854 86.6918C84.6955 86.1855 84.5497 85.6756 84.2567 85.1682C84.2377 85.1352 84.2186 85.1022 84.1954 85.0716C84.4593 85.5573 84.595 86.04 84.5877 86.5227Z" fill="#FBFBFB"/>
<path d="M100.691 81.7787C100.673 82.2514 100.51 82.703 100.196 83.1315C99.8867 83.5577 99.4547 83.9336 98.9061 84.2504C98.5142 84.4766 98.0939 84.6918 97.6428 84.8917C97.1917 85.0917 96.76 85.2584 96.3346 85.3885L96.4322 85.5576C96.8511 85.4258 97.2894 85.2608 97.7405 85.0609C98.1916 84.8609 98.6119 84.6458 99.0038 84.4195C99.5524 84.1027 99.9803 83.7292 100.294 83.3006C100.603 82.8745 100.77 82.4206 100.789 81.9478C100.807 81.4751 100.681 80.9983 100.409 80.528C100.39 80.495 100.371 80.462 100.348 80.4314C100.59 80.8799 100.711 81.3272 100.693 81.7722L100.691 81.7787Z" fill="#FBFBFB"/>
<path d="M84.3138 92.5551L81.2158 94.3438L81.3135 94.5129L84.4115 92.7243L84.3138 92.5551Z" fill="#FBFBFB"/>
<path d="M127.256 105.247C113.664 113.094 109.009 130.478 116.857 144.071C124.704 157.663 142.088 162.317 155.681 154.47C169.273 146.622 173.927 129.239 166.08 115.646C158.232 102.054 140.848 97.3993 127.256 105.247ZM166.706 120.361C166.37 119.835 166.245 119.115 166.015 118.505C166.343 119.207 166.633 119.919 166.894 120.638C166.833 120.552 166.77 120.462 166.706 120.361ZM167.594 136.855C165.727 143.835 161.25 149.665 154.995 153.282C148.737 156.895 141.449 157.857 134.471 155.984C127.492 154.117 121.662 149.64 118.045 143.385C114.432 137.127 113.47 129.839 115.343 122.861C115.386 122.699 115.44 122.536 115.486 122.377C115.552 122.68 115.604 122.98 115.581 123.285C115.535 124.004 115.072 124.547 114.986 125.245C114.914 125.881 115.031 126.704 115.196 127.275C115.376 127.892 115.83 128.498 115.953 129.148C116.109 129.971 115.901 130.63 116.44 131.374C117.555 131.105 116.169 129.656 116.917 129.103C117.537 129.586 118.046 130.86 118.372 131.585C118.818 132.587 118.768 132.929 119.803 133.416C120.624 133.799 121.016 134.145 121.942 133.748C122.788 133.386 123.326 133.554 124.1 134.124C124.787 133.904 125.215 133.788 125.687 134.424C126.037 134.42 126.812 134.61 127.135 134.523C127.602 134.396 127.949 133.426 128.59 133.65C129.658 134.023 129.334 136.806 129.46 137.625C129.647 138.826 130.423 140.303 131.763 140.47C132.451 140.557 133.058 140.437 133.594 141.002C134.088 141.525 134.27 142.097 134.869 142.516C135.806 143.168 136.939 142.91 138.019 143.199C139.438 143.579 140.05 144.783 140.783 146.053C141.553 147.386 142.643 148.103 143.522 149.224C144.43 150.378 145.475 151.331 146.441 152.395C147.168 153.197 148.758 154.121 149.794 153.276C149.622 152.798 148.977 152.719 148.676 152.321C148.4 151.958 148.274 151.491 147.955 151.12C147.326 150.383 147.053 149.892 147.183 148.859C147.232 148.496 147.378 148.131 147.429 147.761C147.531 147.042 147.319 147.362 146.991 146.831C146.58 146.166 146.979 146.381 147.262 145.937C147.41 145.709 147.455 145.243 147.518 144.981C147.658 144.405 147.952 143.647 147.972 143.052C147.996 142.379 147.559 141.718 147.584 141.027C147.609 140.232 148.124 139.934 148.412 139.261C148.783 138.388 148.214 138.023 147.943 137.277C147.493 136.03 147.283 134.485 147.477 133.174C147.722 131.52 147.548 130.333 145.826 129.875C144.976 129.651 144.776 129.953 143.952 130.182C143.324 130.352 142.6 130.242 142.007 130.491C141.649 130.642 141.524 130.874 141.173 130.972C140.846 131.062 140.783 130.867 140.484 131.045C140.041 131.307 139.957 132.599 139.238 132.221C138.837 132.013 138.944 130.73 138.66 130.305C138.309 129.782 137.594 129.012 136.891 129.022C136.624 129.028 136.165 129.271 135.867 129.316C135.51 129.374 135.12 129.357 134.765 129.342C134.301 129.319 133.422 129.32 133.049 129.018C132.623 129.242 132.205 129.176 131.785 129.429C131.408 129.652 131.254 129.977 130.82 130.168C130.437 130.334 129.881 130.275 129.524 130.553C129.286 130.74 129.095 131.296 128.946 131.552C128.545 132.229 128.054 132.837 127.47 133.339C126.565 134.115 126.159 133.832 125.674 132.858L125.345 132.641C125.116 131.377 124.396 131.693 123.498 131.871C122.963 131.184 123.576 130.12 122.714 129.523C121.915 129.93 122.328 132.607 121.126 132.041C120.334 131.668 119.984 129.538 120.058 128.791C120.135 128.037 120.976 126.264 121.588 125.801C122.064 125.444 122.642 125.407 123.1 125.742C123.598 126.109 123.584 126.733 123.969 127.248C124.537 126.716 123.887 125.981 123.601 125.552C123.12 124.834 123.545 124.665 123.617 123.903C123.68 123.213 123.412 122.625 123.571 121.9C123.695 121.334 123.863 120.72 124.039 120.167C124.236 119.536 124.73 119.295 124.999 118.761C125.404 117.949 124.071 117.641 125.072 117.145C125.431 116.966 125.381 117.28 125.78 116.913C125.947 116.755 126.204 116.371 126.358 116.172C127.066 115.263 126.353 115.542 125.644 115.297C124.744 114.986 125.572 114.657 126.074 114.24C126.442 113.934 126.279 113.852 126.776 113.884C127.215 113.911 127.194 114.303 127.642 114.022C128.5 113.489 127.386 112.96 127.023 112.779C126.401 112.473 126.114 112.176 125.397 112.563C125.334 112.302 125.171 112 124.948 111.843C124.399 112.264 124.046 111.891 123.499 111.981C122.58 112.132 123.057 112.682 122.99 113.282C122.925 113.902 122.269 114.176 122.341 114.844C122.417 115.537 122.893 115.829 121.918 116.188C121.845 115.785 121.558 115.384 121.333 115.041C121.054 115.158 120.781 115.228 120.496 115.288C119.982 114.397 120.925 113.753 121.546 113.285C122.242 112.757 122.044 111.853 122.643 111.337C123.197 110.858 124.23 111.609 124.663 110.578C124.912 109.989 124.591 109.91 124.244 109.681C124.153 109.618 123.818 109.553 123.715 109.508C123.702 109.504 123.698 109.496 123.685 109.492C124.216 109.032 124.766 108.593 125.338 108.175C125.647 108.442 126.125 108.699 126.395 108.852C126.591 108.964 126.846 108.966 127.031 109.106C127.243 109.264 127.181 109.652 127.53 109.637C128.069 109.618 128.443 107.493 128.596 107.091C128.792 106.582 128.926 106.29 128.675 106.056C130.635 105.001 132.691 104.199 134.799 103.659C135.048 103.757 135.303 103.857 135.571 103.977C136.146 104.24 136.577 104.519 137.268 104.383C137.669 104.306 138.722 103.671 138.719 104.685C138.715 105.622 137.73 104.964 137.395 104.86C136.934 104.719 135.891 104.865 136.323 105.556C136.969 106.58 139.231 105.049 139.388 106.493C139.764 106.496 140.487 106.452 140.632 106.913C140.814 107.485 139.964 107.546 140.35 108.187C140.902 109.095 142.342 109.275 143.088 108.405C143.878 107.476 142.333 106.525 143.391 105.727C143.807 105.41 144.147 105.39 144.737 105.478C145.217 105.547 145.768 106.016 146.192 105.711C146.075 105.404 145.748 105.323 145.563 105.089C145.964 104.973 146.918 105.006 147.296 105.194C147.868 105.48 148.218 106.163 148.618 105.141C148.454 105.114 148.282 104.939 148.179 104.904C149.128 104.357 150.021 104.369 150.903 104.954C152.877 106.268 149.794 106.101 150.242 107.124C149.589 107.27 149.088 106.965 148.457 106.977C148.159 106.984 147.776 107.293 147.529 107.265C147.19 107.23 147.062 106.875 146.751 106.823C145.529 106.621 144.278 108.807 143.767 109.685C143.63 109.924 143.418 110.062 143.407 110.366C143.385 110.89 143.784 110.791 143.911 111.191C144.099 111.765 143.568 112.379 143.604 112.909C143.688 114.169 145.48 115.005 145.977 116.17C146.252 116.819 145.977 117.847 146.521 118.209C146.755 118.366 147.238 118.335 147.53 118.507C147.797 118.666 148.027 118.941 148.339 119.08C149.348 119.542 150.655 119.948 151.731 120.306C152.342 120.508 152.917 120.331 153.407 119.894C153.814 119.532 154.425 118.971 154.737 118.521C155.153 117.917 155.004 117.487 155.756 117.399C156.354 117.329 157.127 117.697 157.397 116.869C158.119 117.052 158.06 118.131 158.247 118.694C158.487 119.414 159.064 119.823 159.777 120.143C160.63 120.525 160.808 120.576 161.218 121.506C161.539 122.233 161.726 122.956 161.968 123.719C162.201 124.447 162.072 125.176 162.488 125.849C162.873 126.468 163.441 126.823 163.749 127.547C164.02 128.188 164.395 128.923 164.58 129.597C164.765 130.288 164.651 131.063 164.825 131.782C164.994 132.466 165.479 133.192 166.164 133.435C166.877 133.689 167.133 133.161 167.413 132.493C167.964 131.18 167.682 129.654 167.751 128.267C167.826 126.854 167.955 125.525 167.786 124.204C167.75 123.922 167.737 123.633 167.724 123.343C168.823 127.742 168.804 132.367 167.597 136.87L167.594 136.855Z" fill="url(#paint3_linear_305_1856)"/>
<path d="M139.231 106.061C138.844 105.075 136.889 106.291 136.26 105.411C136.278 105.451 136.3 105.498 136.328 105.548C136.888 106.44 138.677 105.396 139.234 106.065L139.231 106.061Z" fill="#FBFBFB"/>
<path d="M139.354 106.309C139.368 106.362 139.386 106.412 139.392 106.48C139.719 106.483 140.289 106.451 140.536 106.737C140.394 106.291 139.74 106.311 139.35 106.311L139.354 106.309Z" fill="#FBFBFB"/>
<path d="M143.434 110.576C143.5 110.785 143.674 110.839 143.805 110.989C143.723 110.761 143.555 110.699 143.434 110.576Z" fill="#FBFBFB"/>
<path d="M143.787 113.512C144.219 114.346 145.289 115.027 145.805 115.845C145.367 115.01 144.301 114.327 143.787 113.512Z" fill="#FBFBFB"/>
<path d="M146.348 152.224C145.382 151.16 144.336 150.206 143.431 149.057C142.551 147.943 141.464 147.223 140.697 145.894C140.728 145.948 140.759 146.002 140.793 146.059C141.562 147.392 142.653 148.109 143.531 149.23C144.439 150.384 145.484 151.337 146.451 152.401C147.177 153.203 148.767 154.127 149.803 153.282C149.777 153.209 149.737 153.15 149.696 153.097C149.698 153.101 149.703 153.109 149.705 153.113C148.67 153.958 147.084 153.031 146.353 152.232L146.348 152.224Z" fill="#FBFBFB"/>
<path d="M148.448 151.947C148.349 151.756 148.254 151.563 148.141 151.376C148.246 151.568 148.343 151.765 148.448 151.947Z" fill="#FBFBFB"/>
<path d="M147.846 137.097C148.117 137.843 148.689 138.205 148.315 139.082C148.027 139.754 147.511 140.052 147.486 140.847C147.461 141.538 147.9 142.203 147.874 142.872C147.851 143.469 147.561 144.225 147.42 144.801C147.357 145.063 147.313 145.529 147.164 145.758C146.877 146.204 146.485 145.991 146.893 146.651L146.898 146.659C146.657 146.194 147.004 146.329 147.262 145.927C147.41 145.698 147.455 145.232 147.518 144.97C147.659 144.394 147.952 143.636 147.972 143.042C147.996 142.368 147.559 141.707 147.584 141.016C147.609 140.221 148.124 139.923 148.413 139.251C148.783 138.377 148.214 138.012 147.943 137.266C147.493 136.019 147.283 134.474 147.477 133.163C147.623 132.177 147.619 131.36 147.224 130.762C147.515 131.342 147.507 132.1 147.38 132.994C147.185 134.305 147.395 135.85 147.846 137.097Z" fill="#FBFBFB"/>
<path d="M147.088 148.684C146.996 149.402 147.105 149.857 147.386 150.316C147.181 149.912 147.108 149.481 147.188 148.857C147.236 148.494 147.383 148.128 147.433 147.758C147.489 147.369 147.452 147.286 147.351 147.206C147.365 147.287 147.359 147.4 147.336 147.589C147.285 147.959 147.139 148.325 147.09 148.688L147.088 148.684Z" fill="#FBFBFB"/>
<path d="M163.56 127.183C163.25 126.597 162.777 126.255 162.427 125.725C162.448 125.762 162.463 125.797 162.487 125.839C162.804 126.349 163.242 126.679 163.56 127.183Z" fill="#FBFBFB"/>
<path d="M123.379 131.647C123.112 131.07 123.381 130.315 122.987 129.767C123.259 130.353 122.991 131.107 123.379 131.647Z" fill="#FBFBFB"/>
<path d="M123.615 123.889C123.678 123.198 123.41 122.61 123.569 121.886C123.693 121.319 123.861 120.705 124.037 120.152C124.234 119.522 124.727 119.281 124.996 118.746C125.162 118.414 125.036 118.168 124.897 117.956C124.98 118.128 125.02 118.331 124.898 118.577C124.63 119.112 124.136 119.353 123.939 119.983C123.763 120.536 123.598 121.154 123.471 121.717C123.312 122.441 123.58 123.029 123.517 123.72C123.447 124.475 123.024 124.648 123.501 125.368L123.508 125.381C123.195 124.791 123.55 124.586 123.615 123.889Z" fill="#FBFBFB"/>
<path d="M147.297 105.177C147.869 105.463 148.22 106.146 148.619 105.124C148.57 105.114 148.519 105.093 148.471 105.066C148.093 105.917 147.743 105.283 147.2 105.008C146.821 104.82 145.867 104.787 145.467 104.903C145.513 104.964 145.57 105.014 145.63 105.062C146.057 104.964 146.937 105.001 147.3 105.181L147.297 105.177Z" fill="#FBFBFB"/>
<path d="M166.609 120.192C166.609 120.192 166.616 120.204 166.621 120.213C166.39 119.785 166.265 119.263 166.108 118.782C166.046 118.636 165.982 118.486 165.915 118.343C166.144 118.948 166.268 119.668 166.607 120.198L166.609 120.192Z" fill="#FBFBFB"/>
<path d="M115.446 122.516C115.431 122.415 115.41 122.311 115.389 122.208C115.341 122.373 115.289 122.53 115.245 122.692C113.378 129.672 114.337 136.962 117.947 143.216C117.964 143.245 117.98 143.273 117.997 143.302C114.424 137.066 113.481 129.811 115.338 122.864C115.37 122.747 115.408 122.632 115.439 122.514L115.446 122.516Z" fill="#FBFBFB"/>
<path d="M134.795 103.644C135.044 103.743 135.3 103.842 135.568 103.963C136.142 104.225 136.573 104.504 137.265 104.369C137.577 104.31 138.283 103.913 138.575 104.218C138.385 103.623 137.517 104.13 137.165 104.196C136.473 104.331 136.04 104.048 135.468 103.79C135.2 103.669 134.944 103.569 134.695 103.471C132.587 104.012 130.531 104.814 128.571 105.868C128.628 105.918 128.661 105.976 128.681 106.03C130.637 104.978 132.689 104.178 134.797 103.638L134.795 103.644Z" fill="#FBFBFB"/>
<path d="M126.394 108.831C126.591 108.943 126.845 108.944 127.03 109.085C127.051 109.101 127.067 109.119 127.083 109.137C127.046 109.054 127.006 108.967 126.93 108.912C126.745 108.771 126.491 108.769 126.294 108.657C126.025 108.505 125.546 108.248 125.238 107.98C124.668 108.403 124.115 108.837 123.584 109.298C123.593 109.304 123.602 109.31 123.615 109.313C123.652 109.33 123.724 109.35 123.798 109.373C124.295 108.948 124.806 108.538 125.335 108.149C125.644 108.417 126.122 108.674 126.392 108.827L126.394 108.831Z" fill="#FBFBFB"/>
<path d="M121.553 113.27C122.249 112.741 122.052 111.838 122.651 111.322C123.205 110.842 124.238 111.593 124.671 110.562C124.809 110.23 124.767 110.061 124.646 109.939C124.676 110.048 124.659 110.19 124.573 110.393C124.14 111.424 123.111 110.671 122.553 111.153C121.959 111.666 122.152 112.572 121.456 113.101C120.837 113.573 119.894 114.217 120.406 115.103L120.419 115.096C120.117 114.297 120.976 113.708 121.553 113.27Z" fill="#FBFBFB"/>
<path d="M144.639 105.298C144.051 105.214 143.711 105.234 143.292 105.548C142.235 106.345 143.779 107.296 142.99 108.225C142.267 109.077 140.868 108.922 140.296 108.064C140.315 108.097 140.332 108.137 140.356 108.178C140.908 109.086 142.348 109.266 143.094 108.396C143.884 107.467 142.339 106.516 143.397 105.718C143.813 105.401 144.153 105.381 144.743 105.469C145.223 105.538 145.774 106.007 146.198 105.702C146.17 105.635 146.139 105.582 146.1 105.533C145.674 105.834 145.126 105.369 144.645 105.3L144.639 105.298Z" fill="#FBFBFB"/>
<path d="M121.49 125.61C120.878 126.074 120.035 127.843 119.961 128.6C119.902 129.195 120.111 130.653 120.593 131.42C120.178 130.625 120.004 129.323 120.061 128.774C120.137 128.02 120.978 126.247 121.59 125.784C122.066 125.426 122.645 125.39 123.102 125.725C123.216 125.808 123.301 125.907 123.373 126.014C123.284 125.84 123.181 125.68 123.002 125.552C122.544 125.216 121.964 125.249 121.49 125.61Z" fill="#FBFBFB"/>
<path d="M123.869 127.064C123.85 127.031 123.831 126.998 123.808 126.968C123.853 127.057 123.906 127.147 123.967 127.233C124.357 126.871 124.169 126.412 123.926 126.019C124.111 126.369 124.204 126.75 123.869 127.064Z" fill="#FBFBFB"/>
<path d="M128.495 106.908C128.34 107.305 127.968 109.434 127.43 109.454C127.317 109.458 127.248 109.415 127.2 109.361C127.26 109.502 127.323 109.631 127.53 109.627C128.068 109.607 128.442 107.483 128.595 107.081C128.782 106.594 128.912 106.304 128.697 106.076C128.75 106.282 128.64 106.538 128.498 106.912L128.495 106.908Z" fill="#FBFBFB"/>
<path d="M157.399 116.852C157.579 116.897 157.711 117.002 157.811 117.137C157.706 116.917 157.551 116.743 157.302 116.683C157.038 117.512 156.26 117.147 155.661 117.213C154.908 117.301 155.058 117.731 154.642 118.335C154.332 118.789 153.719 119.346 153.311 119.708C152.817 120.147 152.247 120.322 151.635 120.12C150.562 119.766 149.253 119.356 148.243 118.894C147.929 118.75 147.699 118.476 147.434 118.321C147.142 118.149 146.66 118.18 146.426 118.023C146.366 117.986 146.32 117.936 146.279 117.883C146.336 118.009 146.415 118.118 146.526 118.196C146.76 118.353 147.242 118.322 147.534 118.494C147.802 118.653 148.032 118.928 148.343 119.067C149.353 119.529 150.66 119.935 151.735 120.293C152.347 120.495 152.921 120.318 153.411 119.881C153.819 119.519 154.429 118.958 154.742 118.508C155.158 117.905 155.008 117.474 155.761 117.386C156.358 117.316 157.131 117.684 157.402 116.857L157.399 116.852Z" fill="#FBFBFB"/>
<path d="M155.583 154.3C142.019 162.131 124.682 157.51 116.809 143.988C116.826 144.017 116.842 144.046 116.859 144.074C124.707 157.667 142.09 162.321 155.683 154.474C169.275 146.626 173.93 129.242 166.082 115.65C166.065 115.621 166.049 115.592 166.032 115.563C173.813 129.145 169.15 146.467 155.589 154.302L155.583 154.3Z" fill="#FBFBFB"/>
<path d="M167.688 124.025C167.857 125.346 167.728 126.675 167.652 128.088C167.582 129.471 167.863 130.997 167.313 132.31C167.033 132.978 166.776 133.505 166.063 133.252C165.653 133.103 165.314 132.782 165.073 132.404C165.318 132.857 165.692 133.257 166.161 133.421C166.874 133.674 167.13 133.147 167.41 132.479C167.961 131.166 167.679 129.64 167.748 128.253C167.823 126.84 167.952 125.511 167.783 124.19C167.76 124.016 167.749 123.835 167.738 123.654C167.699 123.49 167.663 123.324 167.623 123.16C167.637 123.449 167.65 123.739 167.686 124.02L167.688 124.025Z" fill="#FBFBFB"/>
<path d="M131.767 140.468C132.455 140.554 133.062 140.435 133.598 141C134.092 141.523 134.274 142.095 134.873 142.513C135.811 143.166 136.943 142.908 138.023 143.197C139.247 143.525 139.869 144.469 140.49 145.535C139.832 144.397 139.214 143.373 137.926 143.028C136.846 142.739 135.713 142.996 134.775 142.344C134.176 141.926 133.995 141.354 133.5 140.831C132.965 140.266 132.357 140.385 131.669 140.298C130.923 140.207 130.351 139.701 129.959 139.07C130.353 139.782 130.954 140.365 131.767 140.468Z" fill="#FBFBFB"/>
<path d="M148.078 104.721C148.128 104.741 148.195 104.79 148.275 104.843C149.191 104.353 150.051 104.374 150.902 104.944C151.171 105.124 151.347 105.276 151.451 105.408C151.394 105.243 151.204 105.039 150.804 104.775C149.92 104.185 149.029 104.177 148.081 104.725L148.078 104.721Z" fill="#FBFBFB"/>
<path d="M159.674 119.955C159.117 119.705 158.642 119.396 158.347 118.923C158.626 119.493 159.149 119.846 159.772 120.124C160.394 120.403 160.659 120.509 160.911 120.907C160.621 120.366 160.371 120.268 159.674 119.955Z" fill="#FBFBFB"/>
<path d="M125.069 117.131C125.428 116.951 125.378 117.266 125.777 116.898C125.944 116.741 126.201 116.356 126.355 116.157C126.696 115.718 126.705 115.553 126.545 115.476C126.534 115.581 126.45 115.74 126.255 115.984C126.101 116.183 125.844 116.568 125.677 116.725C125.278 117.092 125.328 116.778 124.969 116.957C124.451 117.213 124.555 117.422 124.722 117.672C124.641 117.493 124.671 117.327 125.069 117.131Z" fill="#FBFBFB"/>
<path d="M125.189 112.089C125.235 112.189 125.275 112.287 125.298 112.383C125.311 112.376 125.323 112.369 125.335 112.362C125.298 112.268 125.25 112.175 125.189 112.089Z" fill="#FBFBFB"/>
<path d="M121.616 115.456C121.714 115.635 121.791 115.817 121.826 116C121.838 115.993 121.85 115.986 121.869 115.98C121.809 115.8 121.722 115.62 121.618 115.449L121.616 115.456Z" fill="#FBFBFB"/>
<path d="M139.05 131.962C138.867 131.512 138.887 130.631 138.663 130.292C138.654 130.276 138.636 130.254 138.626 130.237C138.82 130.697 138.785 131.647 139.056 131.963L139.05 131.962Z" fill="#FBFBFB"/>
<path d="M127.54 113.835C127.092 114.115 127.115 113.728 126.674 113.697C126.177 113.665 126.34 113.747 125.972 114.052C125.547 114.402 124.896 114.695 125.243 114.963C125.258 114.74 125.736 114.502 126.07 114.222C126.437 113.916 126.275 113.834 126.772 113.866C127.211 113.893 127.189 114.285 127.638 114.004C128.031 113.76 128.01 113.514 127.835 113.307C127.892 113.472 127.83 113.651 127.54 113.835Z" fill="#FBFBFB"/>
<path d="M125.655 132.825C125.698 132.9 125.736 132.966 125.774 133.032C125.738 132.97 125.707 132.906 125.67 132.833L125.652 132.821L125.655 132.825Z" fill="#FBFBFB"/>
<path d="M121.949 133.75C122.796 133.388 123.333 133.556 124.108 134.126C124.794 133.906 125.223 133.791 125.694 134.426C126.044 134.422 126.819 134.612 127.143 134.525C127.609 134.399 127.956 133.428 128.597 133.652C128.763 133.71 128.891 133.829 128.995 133.989C128.876 133.744 128.719 133.559 128.499 133.483C127.858 133.259 127.515 134.227 127.045 134.356C126.722 134.443 125.946 134.253 125.596 134.257C125.127 133.626 124.697 133.737 124.01 133.957C123.239 133.385 122.702 133.216 121.851 133.581C120.925 133.978 120.529 133.635 119.712 133.249C119.214 133.014 118.964 132.811 118.793 132.552C118.972 132.9 119.206 133.134 119.81 133.418C120.631 133.802 121.023 134.147 121.949 133.75Z" fill="#FBFBFB"/>
<path d="M116.444 131.372C117.559 131.103 116.172 129.654 116.92 129.101C117.142 129.275 117.35 129.551 117.538 129.866C117.316 129.482 117.082 129.134 116.822 128.932C116.072 129.48 117.461 130.933 116.346 131.203C116.314 131.156 116.292 131.108 116.265 131.063C116.314 131.167 116.371 131.266 116.444 131.372Z" fill="#FBFBFB"/>
<path d="M125.095 131.96C125.159 132.089 125.206 132.248 125.24 132.449L125.311 132.496C125.256 132.258 125.184 132.085 125.095 131.96Z" fill="#FBFBFB"/>
</g>
</g>
<defs>
<filter id="filter0_d_305_1856" x="1.92458" y="44.1436" width="264.615" height="277.831" filterUnits="userSpaceOnUse" color-interpolation-filters="sRGB">
<feFlood flood-opacity="0" result="BackgroundImageFix"/>
<feColorMatrix in="SourceAlpha" type="matrix" values="0 0 0 0 0 0 0 0 0 0 0 0 0 0 0 0 0 0 127 0" result="hardAlpha"/>
<feOffset dx="1.21116" dy="1.21116"/>
<feGaussianBlur stdDeviation="9.08372"/>
<feComposite in2="hardAlpha" operator="out"/>
<feColorMatrix type="matrix" values="0 0 0 0 0 0 0 0 0 0 0 0 0 0 0 0 0 0 0.15 0"/>
<feBlend mode="normal" in2="BackgroundImageFix" result="effect1_dropShadow_305_1856"/>
<feBlend mode="normal" in="SourceGraphic" in2="effect1_dropShadow_305_1856" result="shape"/>
</filter>
<filter id="filter1_d_305_1856" x="27.2358" y="2.54215" width="212.439" height="230.138" filterUnits="userSpaceOnUse" color-interpolation-filters="sRGB">
<feFlood flood-opacity="0" result="BackgroundImageFix"/>
<feColorMatrix in="SourceAlpha" type="matrix" values="0 0 0 0 0 0 0 0 0 0 0 0 0 0 0 0 0 0 127 0" result="hardAlpha"/>
<feOffset dx="0.96893" dy="0.96893"/>
<feGaussianBlur stdDeviation="7.26698"/>
<feComposite in2="hardAlpha" operator="out"/>
<feColorMatrix type="matrix" values="0 0 0 0 0 0 0 0 0 0 0 0 0 0 0 0 0 0 0.25 0"/>
<feBlend mode="normal" in2="BackgroundImageFix" result="effect1_dropShadow_305_1856"/>
<feBlend mode="normal" in="SourceGraphic" in2="effect1_dropShadow_305_1856" result="shape"/>
</filter>
<linearGradient id="paint0_linear_305_1856" x1="82.1104" y1="145.43" x2="184.298" y2="86.4321" gradientUnits="userSpaceOnUse">
<stop stop-color="#04092C"/>
<stop offset="0.02" stop-color="#28365E"/>
<stop offset="0.03" stop-color="#04092C"/>
<stop offset="0.05" stop-color="#19274E"/>
<stop offset="1" stop-color="#3A4870"/>
</linearGradient>
<radialGradient id="paint1_radial_305_1856" cx="0" cy="0" r="1" gradientUnits="userSpaceOnUse" gradientTransform="translate(125.345 102.318) rotate(-30) scale(98.6196 98.6196)">
<stop stop-color="#E0E0E0"/>
<stop offset="1" stop-color="#7D7D7D"/>
</radialGradient>
<linearGradient id="paint2_linear_305_1856" x1="111.016" y1="77.491" x2="106.372" y2="69.447" gradientUnits="userSpaceOnUse">
<stop stop-color="#F6EAD1"/>
<stop offset="0.26" stop-color="#FBD985"/>
<stop offset="0.64" stop-color="#FBE9A5"/>
<stop offset="0.84" stop-color="#F6E191"/>
<stop offset="1" stop-color="#FBDDB7"/>
</linearGradient>
<linearGradient id="paint3_linear_305_1856" x1="155.677" y1="154.483" x2="127.254" y2="105.253" gradientUnits="userSpaceOnUse">
<stop stop-color="#F6EAD1"/>
<stop offset="0.26" stop-color="#FBD985"/>
<stop offset="0.64" stop-color="#FBE9A5"/>
<stop offset="0.84" stop-color="#F6E191"/>
<stop offset="1" stop-color="#FBDDB7"/>
</linearGradient>
<clipPath id="clip0_305_1856">
<rect width="265" height="315" fill="white"/>
</clipPath>
</defs>
</svg>
